<svg width="101" height="13" viewBox="0 0 101 13" fill="none" xmlns="http://www.w3.org/2000/svg">
<path d="M2.26136 12H0.397727L4.58523 0.363636H6.61364L10.8011 12H8.9375L5.64773 2.47727H5.55682L2.26136 12ZM2.57386 7.44318H8.61932V8.92045H2.57386V7.44318ZM12.4815 12V0.363636H16.7429C17.5687 0.363636 18.2524 0.5 18.794 0.772727C19.3357 1.04167 19.741 1.4072 20.0099 1.86932C20.2789 2.32765 20.4134 2.8447 20.4134 3.42045C20.4134 3.9053 20.3243 4.31439 20.1463 4.64773C19.9683 4.97727 19.7296 5.24242 19.4304 5.44318C19.1349 5.64015 18.8092 5.78409 18.4531 5.875V5.98864C18.8395 6.00758 19.2164 6.13258 19.5838 6.36364C19.955 6.59091 20.2618 6.91477 20.5043 7.33523C20.7467 7.75568 20.8679 8.26705 20.8679 8.86932C20.8679 9.46402 20.7277 9.99811 20.4474 10.4716C20.1709 10.9413 19.7429 11.3144 19.1634 11.5909C18.5838 11.8636 17.8433 12 16.9418 12H12.4815ZM14.2372 10.4943H16.7713C17.6122 10.4943 18.2145 10.3314 18.5781 10.0057C18.9418 9.67992 19.1236 9.27273 19.1236 8.78409C19.1236 8.41667 19.0308 8.07955 18.8452 7.77273C18.6596 7.46591 18.3944 7.22159 18.0497 7.03977C17.7088 6.85795 17.3035 6.76705 16.8338 6.76705H14.2372V10.4943ZM14.2372 5.39773H16.5895C16.9834 5.39773 17.3376 5.32197 17.652 5.17045C17.9702 5.01894 18.2221 4.80682 18.4077 4.53409C18.5971 4.25758 18.6918 3.93182 18.6918 3.55682C18.6918 3.07576 18.5232 2.67235 18.1861 2.34659C17.849 2.02083 17.3319 1.85795 16.6349 1.85795H14.2372V5.39773ZM33.0582 6.18182C33.0582 7.42424 32.831 8.49242 32.3764 9.38636C31.9219 10.2765 31.2988 10.9621 30.5071 11.4432C29.7192 11.9205 28.8234 12.1591 27.8196 12.1591C26.812 12.1591 25.9124 11.9205 25.1207 11.4432C24.3329 10.9621 23.7116 10.2746 23.2571 9.38068C22.8026 8.48674 22.5753 7.42045 22.5753 6.18182C22.5753 4.93939 22.8026 3.87311 23.2571 2.98295C23.7116 2.08901 24.3329 1.40341 25.1207 0.926136C25.9124 0.445075 26.812 0.204545 27.8196 0.204545C28.8234 0.204545 29.7192 0.445075 30.5071 0.926136C31.2988 1.40341 31.9219 2.08901 32.3764 2.98295C32.831 3.87311 33.0582 4.93939 33.0582 6.18182ZM31.3196 6.18182C31.3196 5.23485 31.1662 4.4375 30.8594 3.78977C30.5563 3.13826 30.1397 2.64583 29.6094 2.3125C29.0829 1.97538 28.4863 1.80682 27.8196 1.80682C27.1491 1.80682 26.5507 1.97538 26.0241 2.3125C25.4976 2.64583 25.081 3.13826 24.7741 3.78977C24.4711 4.4375 24.3196 5.23485 24.3196 6.18182C24.3196 7.12879 24.4711 7.92803 24.7741 8.57955C25.081 9.22727 25.4976 9.7197 26.0241 10.0568C26.5507 10.3902 27.1491 10.5568 27.8196 10.5568C28.4863 10.5568 29.0829 10.3902 29.6094 10.0568C30.1397 9.7197 30.5563 9.22727 30.8594 8.57955C31.1662 7.92803 31.3196 7.12879 31.3196 6.18182ZM42.7301 0.363636H44.4915V8.01705C44.4915 8.83144 44.3002 9.55303 43.9176 10.1818C43.535 10.8068 42.9972 11.2992 42.304 11.6591C41.6108 12.0152 40.7983 12.1932 39.8665 12.1932C38.9384 12.1932 38.1278 12.0152 37.4347 11.6591C36.7415 11.2992 36.2036 10.8068 35.821 10.1818C35.4384 9.55303 35.2472 8.83144 35.2472 8.01705V0.363636H37.0028V7.875C37.0028 8.40152 37.1184 8.86932 37.3494 9.27841C37.5843 9.6875 37.9157 10.0095 38.3438 10.2443C38.7718 10.4754 39.2794 10.5909 39.8665 10.5909C40.4574 10.5909 40.9669 10.4754 41.3949 10.2443C41.8267 10.0095 42.1563 9.6875 42.3835 9.27841C42.6146 8.86932 42.7301 8.40152 42.7301 7.875V0.363636ZM46.4702 1.875V0.363636H55.4759V1.875H51.8452V12H50.0952V1.875H46.4702ZM69.1832 0.363636H70.9446V8.01705C70.9446 8.83144 70.7533 9.55303 70.3707 10.1818C69.9882 10.8068 69.4503 11.2992 68.7571 11.6591C68.0639 12.0152 67.2514 12.1932 66.3196 12.1932C65.3916 12.1932 64.581 12.0152 63.8878 11.6591C63.1946 11.2992 62.6567 10.8068 62.2741 10.1818C61.8916 9.55303 61.7003 8.83144 61.7003 8.01705V0.363636H63.456V7.875C63.456 8.40152 63.5715 8.86932 63.8026 9.27841C64.0374 9.6875 64.3688 10.0095 64.7969 10.2443C65.2249 10.4754 65.7325 10.5909 66.3196 10.5909C66.9105 10.5909 67.42 10.4754 67.848 10.2443C68.2798 10.0095 68.6094 9.6875 68.8366 9.27841C69.0677 8.86932 69.1832 8.40152 69.1832 7.875V0.363636ZM79.8438 3.42045C79.7831 2.88258 79.5331 2.46591 79.0938 2.17045C78.6544 1.87121 78.1013 1.72159 77.4347 1.72159C76.9574 1.72159 76.5445 1.79735 76.196 1.94886C75.8475 2.09659 75.5767 2.30114 75.3835 2.5625C75.1941 2.82008 75.0994 3.11364 75.0994 3.44318C75.0994 3.7197 75.1638 3.95833 75.2926 4.15909C75.4252 4.35985 75.5975 4.52841 75.8097 4.66477C76.0256 4.79735 76.2566 4.90909 76.5028 5C76.7491 5.08712 76.9858 5.15909 77.2131 5.21591L78.3494 5.51136C78.7206 5.60227 79.1013 5.72538 79.4915 5.88068C79.8816 6.03598 80.2434 6.24053 80.5767 6.49432C80.91 6.74811 81.179 7.0625 81.3835 7.4375C81.5919 7.8125 81.696 8.26136 81.696 8.78409C81.696 9.44318 81.5256 10.0284 81.1847 10.5398C80.8475 11.0511 80.357 11.4545 79.7131 11.75C79.0729 12.0455 78.2983 12.1932 77.3892 12.1932C76.518 12.1932 75.7642 12.0549 75.1278 11.7784C74.4915 11.5019 73.9934 11.1098 73.6335 10.6023C73.2737 10.0909 73.0748 9.48485 73.0369 8.78409H74.7983C74.8324 9.20455 74.9688 9.55492 75.2074 9.83523C75.4498 10.1117 75.7585 10.3182 76.1335 10.4545C76.5123 10.5871 76.9271 10.6534 77.3778 10.6534C77.8741 10.6534 78.3153 10.5758 78.7017 10.4205C79.0919 10.2614 79.3987 10.0417 79.6222 9.76136C79.8456 9.47727 79.9574 9.14583 79.9574 8.76705C79.9574 8.42235 79.8589 8.14015 79.6619 7.92045C79.4688 7.70076 79.2055 7.51894 78.8722 7.375C78.5426 7.23106 78.1695 7.10417 77.7528 6.99432L76.3778 6.61932C75.446 6.36553 74.7074 5.99242 74.1619 5.5C73.6203 5.00758 73.3494 4.35606 73.3494 3.54545C73.3494 2.875 73.5313 2.28977 73.8949 1.78977C74.2585 1.28977 74.7509 0.901515 75.3722 0.625C75.9934 0.344697 76.6941 0.204545 77.4744 0.204545C78.2623 0.204545 78.9574 0.342803 79.5597 0.619318C80.1657 0.895833 80.643 1.27652 80.9915 1.76136C81.34 2.24242 81.5218 2.79545 81.5369 3.42045H79.8438ZM95.142 11.483L94.1193 10.4716L97.6705 6.92045H88.75V5.44318H97.6705L94.1193 1.89773L95.142 0.880681L100.443 6.18182L95.142 11.483Z" fill="#0F172A"/>
</svg>
