<svg width="108" height="34" viewBox="0 0 108 34" fill="none" xmlns="http://www.w3.org/2000/svg">
<g clip-path="url(#clip0_2115_125)">
<path d="M57.0093 8.59546C57.0093 9.79971 56.0405 10.7698 54.8378 10.7698C53.6352 10.7698 52.6664 9.79971 52.6664 8.59546C52.6664 7.39122 53.6018 6.42114 54.8378 6.42114C56.0739 6.45459 57.0093 7.42467 57.0093 8.59546ZM48.0561 12.9776C48.0561 13.1783 48.0561 13.5128 48.0561 13.5128C48.0561 13.5128 47.0205 12.1747 44.8156 12.1747C41.1743 12.1747 38.3346 14.9512 38.3346 18.7981C38.3346 22.6115 41.1408 25.4214 44.8156 25.4214C47.0539 25.4214 48.0561 24.0499 48.0561 24.0499V24.6186C48.0561 24.8862 48.2566 25.0869 48.5239 25.0869H51.2298V12.5092C51.2298 12.5092 48.7577 12.5092 48.5239 12.5092C48.2566 12.5092 48.0561 12.7434 48.0561 12.9776ZM48.0561 21.0393C47.555 21.7752 46.5528 22.4108 45.3502 22.4108C43.2121 22.4108 41.5751 21.0728 41.5751 18.7981C41.5751 16.5234 43.2121 15.1853 45.3502 15.1853C46.5194 15.1853 47.5884 15.8544 48.0561 16.5568V21.0393ZM53.2343 12.5092H56.4414V25.0869H53.2343V12.5092ZM101.14 12.1747C98.9354 12.1747 97.8998 13.5128 97.8998 13.5128V6.45459H94.6927V25.0869C94.6927 25.0869 97.1649 25.0869 97.3987 25.0869C97.666 25.0869 97.8664 24.8527 97.8664 24.6186V24.0499C97.8664 24.0499 98.902 25.4214 101.107 25.4214C104.748 25.4214 107.588 22.6115 107.588 18.7981C107.588 14.9846 104.748 12.1747 101.14 12.1747ZM100.606 22.3773C99.3697 22.3773 98.4009 21.7418 97.8998 21.0058V16.5234C98.4009 15.8544 99.47 15.1519 100.606 15.1519C102.744 15.1519 104.381 16.4899 104.381 18.7646C104.381 21.0393 102.744 22.3773 100.606 22.3773ZM93.0223 17.6273V25.1203H89.8152V17.9952C89.8152 15.9213 89.1471 15.085 87.3431 15.085C86.3743 15.085 85.3721 15.5868 84.7373 16.3227V25.0869H81.5303V12.5092H84.0692C84.3365 12.5092 84.5369 12.7434 84.5369 12.9776V13.5128C85.4723 12.5427 86.7084 12.1747 87.9444 12.1747C89.3475 12.1747 90.5168 12.5762 91.4522 13.379C92.5881 14.3156 93.0223 15.5199 93.0223 17.6273ZM73.7464 12.1747C71.5415 12.1747 70.5058 13.5128 70.5058 13.5128V6.45459H67.2987V25.0869C67.2987 25.0869 69.7709 25.0869 70.0047 25.0869C70.272 25.0869 70.4724 24.8527 70.4724 24.6186V24.0499C70.4724 24.0499 71.5081 25.4214 73.7129 25.4214C77.3543 25.4214 80.194 22.6115 80.194 18.7981C80.2274 14.9846 77.3877 12.1747 73.7464 12.1747ZM73.2118 22.3773C71.9758 22.3773 71.007 21.7418 70.5058 21.0058V16.5234C71.007 15.8544 72.076 15.1519 73.2118 15.1519C75.3499 15.1519 76.9869 16.4899 76.9869 18.7646C76.9869 21.0393 75.3499 22.3773 73.2118 22.3773ZM64.5259 12.1747C65.4948 12.1747 65.9959 12.342 65.9959 12.342V15.3191C65.9959 15.3191 63.3233 14.416 61.6529 16.3227V25.1203H58.4458V12.5092C58.4458 12.5092 60.918 12.5092 61.1518 12.5092C61.4191 12.5092 61.6195 12.7434 61.6195 12.9776V13.5128C62.2208 12.8103 63.5237 12.1747 64.5259 12.1747ZM31.2189 23.9496C31.0518 23.5481 30.8848 23.1133 30.7178 22.7453C30.4505 22.1432 30.1833 21.5745 29.9494 21.0393L29.916 21.0058C27.6109 15.9882 25.1388 10.9036 22.533 5.88592L22.4328 5.68521C22.1655 5.18344 21.8983 4.64822 21.631 4.11301C21.2969 3.51088 20.9628 2.87531 20.4283 2.27319C19.3593 0.935144 17.8226 0.199219 16.1856 0.199219C14.5152 0.199219 13.0119 0.935145 11.9095 2.20629C11.4084 2.80841 11.0409 3.44398 10.7068 4.0461C10.4396 4.58132 10.1723 5.11654 9.90504 5.61831L9.80482 5.81902C7.23246 10.8367 4.72691 15.9213 2.42181 20.9389L2.3884 21.0058C2.15455 21.5411 1.88729 22.1097 1.62003 22.7119C1.453 23.0798 1.28596 23.4812 1.11892 23.9161C0.684629 25.1538 0.551 26.3246 0.718036 27.5288C1.08552 30.0377 2.75588 32.1451 5.06098 33.0817C5.92957 33.4497 6.83157 33.6169 7.76697 33.6169C8.03423 33.6169 8.3683 33.5835 8.63556 33.55C9.738 33.4162 10.8738 33.0483 11.9763 32.4127C13.346 31.6433 14.6489 30.5394 16.1188 28.9338C17.5887 30.5394 18.925 31.6433 20.2613 32.4127C21.3637 33.0483 22.4996 33.4162 23.602 33.55C23.8693 33.5835 24.2034 33.6169 24.4706 33.6169C25.406 33.6169 26.3414 33.4497 27.1766 33.0817C29.5151 32.1451 31.1521 30.0042 31.5195 27.5288C31.7868 26.358 31.6532 25.1872 31.2189 23.9496ZM16.1522 25.689C14.3482 23.4143 13.179 21.2735 12.7781 19.4671C12.611 18.6977 12.5776 18.0287 12.6778 17.4266C12.7447 16.8914 12.9451 16.423 13.2124 16.0216C13.8471 15.1184 14.9161 14.5498 16.1522 14.5498C17.3883 14.5498 18.4907 15.085 19.092 16.0216C19.3593 16.423 19.5597 16.8914 19.6266 17.4266C19.7268 18.0287 19.6934 18.7312 19.5263 19.4671C19.1254 21.24 17.9562 23.3809 16.1522 25.689ZM29.4817 27.2612C29.2479 29.0007 28.0786 30.506 26.4416 31.175C25.6399 31.5095 24.7713 31.6099 23.9027 31.5095C23.0675 31.4092 22.2323 31.1416 21.3637 30.6398C20.1611 29.9708 18.9584 28.9338 17.5553 27.395C19.7602 24.6855 21.0965 22.2101 21.5976 20.0023C21.8314 18.9653 21.8648 18.0287 21.7646 17.159C21.631 16.3227 21.3303 15.5533 20.8626 14.8843C19.827 13.379 18.0898 12.5092 16.1522 12.5092C14.2146 12.5092 12.4774 13.4124 11.4418 14.8843C10.9741 15.5533 10.6734 16.3227 10.5398 17.159C10.4061 18.0287 10.4396 18.9988 10.7068 20.0023C11.2079 22.2101 12.5776 24.7189 14.7491 27.4285C13.3794 28.9672 12.1433 30.0042 10.9407 30.6732C10.0721 31.175 9.23689 31.4426 8.40171 31.543C7.49971 31.6433 6.63112 31.5095 5.86276 31.2085C4.2258 30.5394 3.05655 29.0341 2.82269 27.2947C2.72247 26.4584 2.78929 25.6221 3.12336 24.6855C3.22358 24.351 3.39062 24.0165 3.55765 23.615C3.79151 23.0798 4.05876 22.5112 4.32602 21.9425L4.35943 21.8756C6.66453 16.8914 9.13667 11.8068 11.709 6.856L11.8093 6.65529C12.0765 6.15353 12.3438 5.61831 12.611 5.11654C12.8783 4.58132 13.179 4.07955 13.5464 3.64469C14.248 2.84186 15.1834 2.407 16.219 2.407C17.2546 2.407 18.19 2.84186 18.8916 3.64469C19.2591 4.07955 19.5597 4.58132 19.827 5.11654C20.0943 5.61831 20.3615 6.15353 20.6288 6.65529L20.729 6.856C23.268 11.8402 25.7401 16.9248 28.0452 21.909V21.9425C28.3124 22.4777 28.5463 23.0798 28.8136 23.615C28.9806 24.0165 29.1476 24.351 29.2479 24.6855C29.5151 25.5552 29.6153 26.3915 29.4817 27.2612Z" fill="#FF385C"/>
</g>
<defs>
<clipPath id="clip0_2115_125">
<rect width="106.652" height="33.4177" fill="white" transform="translate(0.652344 0.199219)"/>
</clipPath>
</defs>
</svg>
