<svg width="659" height="198" viewBox="0 0 659 198" fill="none" xmlns="http://www.w3.org/2000/svg">
<path d="M368.454 74.1761H383.311V126.175H368.454V74.1761ZM418.507 74.1761H433.364V126.175H421.479L405.136 102.404V126.175H390.279V74.1761H402.165L418.507 97.9469V74.1761ZM458.318 127.363C452.672 127.363 447.967 126.2 444.204 123.872C440.44 121.495 437.914 118.301 436.627 114.289L449.329 106.935C451.063 111.343 454.182 113.547 458.689 113.547C462.057 113.547 463.74 112.655 463.74 110.872C463.74 110.377 463.617 109.931 463.369 109.535C463.121 109.139 462.651 108.792 461.958 108.495C461.264 108.198 460.645 107.975 460.1 107.827C459.605 107.629 458.714 107.356 457.426 107.01C456.139 106.663 455.173 106.391 454.529 106.192C444.179 103.073 439.004 97.5012 439.004 89.4786C439.004 84.7244 440.712 80.7873 444.129 77.6674C447.596 74.5475 452.127 72.9875 457.723 72.9875C462.131 72.9875 466.068 74.0275 469.534 76.1074C473.051 78.1874 475.626 81.1835 477.26 85.0958L464.929 92.3013C463.493 88.6367 461.116 86.8043 457.798 86.8043C456.51 86.8043 455.52 87.0767 454.826 87.6215C454.182 88.1167 453.861 88.7605 453.861 89.5528C453.861 90.6423 454.43 91.4842 455.569 92.0785C456.758 92.6728 459.011 93.4404 462.329 94.3813C464.805 95.1241 466.836 95.8422 468.42 96.5355C470.005 97.1793 471.664 98.1202 473.397 99.3583C475.131 100.547 476.418 102.107 477.26 104.038C478.151 105.92 478.597 108.149 478.597 110.724C478.597 116.023 476.765 120.133 473.1 123.055C469.485 125.927 464.557 127.363 458.318 127.363ZM517.917 74.1761V88.5871H505.66V126.175H490.803V88.5871H478.546V74.1761H517.917ZM548.299 126.175L546.516 119.489H531.51L529.728 126.175H513.757L530.322 74.1761H547.704L564.27 126.175H548.299ZM534.705 107.604H543.322L539.013 91.6328L534.705 107.604ZM595.035 74.1761H609.892V126.175H598.006L581.664 102.404V126.175H566.807V74.1761H578.692L595.035 97.9469V74.1761ZM653.25 74.1761V88.5871H640.993V126.175H626.137V88.5871H613.88V74.1761H653.25Z" fill="#38A2DA"/>
<path d="M341.232 137.392V189.391H326.375V164.06L314.787 183.522H313.45L301.861 164.06V189.391H287.005V137.392H301.861L314.118 158.563L326.375 137.392H341.232ZM363.077 175.722H382.391V189.391H348.22V137.392H382.02V150.912H363.077V156.557H380.163V169.928H363.077V175.722ZM442.118 137.392V189.391H427.261V164.06L415.673 183.522H414.336L402.748 164.06V189.391H387.891V137.392H402.748L415.005 158.563L427.261 137.392H442.118ZM494.346 182.779C489.047 187.979 482.534 190.579 474.809 190.579C467.083 190.579 460.546 187.979 455.198 182.779C449.899 177.53 447.25 171.067 447.25 163.391C447.25 155.715 449.899 149.277 455.198 144.077C460.546 138.828 467.083 136.203 474.809 136.203C482.534 136.203 489.047 138.828 494.346 144.077C499.694 149.277 502.368 155.715 502.368 163.391C502.368 171.067 499.694 177.53 494.346 182.779ZM465.672 172.454C468.099 174.831 471.144 176.02 474.809 176.02C478.474 176.02 481.495 174.831 483.872 172.454C486.298 170.027 487.511 167.006 487.511 163.391C487.511 159.776 486.298 156.78 483.872 154.403C481.495 151.976 478.474 150.763 474.809 150.763C471.144 150.763 468.099 151.976 465.672 154.403C463.295 156.78 462.106 159.776 462.106 163.391C462.106 167.006 463.295 170.027 465.672 172.454ZM534.31 189.316L526.064 172.974H522.35V189.316H507.493V137.318H528.293C533.988 137.318 538.693 139.001 542.407 142.369C546.121 145.687 547.978 150.094 547.978 155.591C547.978 158.662 547.26 161.435 545.824 163.911C544.437 166.387 542.481 168.393 539.955 169.928L550.207 189.316H534.31ZM522.35 150.986V160.643H527.996C529.58 160.692 530.818 160.296 531.71 159.454C532.651 158.612 533.121 157.424 533.121 155.889C533.121 154.353 532.651 153.165 531.71 152.323C530.818 151.432 529.58 150.986 527.996 150.986H522.35ZM553.475 137.392H568.332V189.391H553.475V137.392ZM590.157 175.722H609.471V189.391H575.3V137.392H609.099V150.912H590.157V156.557H607.242V169.928H590.157V175.722ZM633.69 190.579C628.044 190.579 623.34 189.415 619.576 187.088C615.812 184.711 613.287 181.517 611.999 177.505L624.702 170.151C626.435 174.559 629.555 176.762 634.061 176.762C637.429 176.762 639.113 175.871 639.113 174.088C639.113 173.593 638.989 173.147 638.741 172.751C638.494 172.355 638.023 172.008 637.33 171.711C636.637 171.414 636.018 171.191 635.473 171.042C634.978 170.844 634.086 170.572 632.799 170.225C631.511 169.879 630.545 169.606 629.902 169.408C619.551 166.288 614.376 160.717 614.376 152.694C614.376 147.94 616.085 144.003 619.502 140.883C622.968 137.763 627.5 136.203 633.096 136.203C637.503 136.203 641.44 137.243 644.907 139.323C648.423 141.403 650.998 144.399 652.632 148.312L640.301 155.517C638.865 151.852 636.488 150.02 633.17 150.02C631.882 150.02 630.892 150.293 630.199 150.837C629.555 151.332 629.233 151.976 629.233 152.769C629.233 153.858 629.803 154.7 630.942 155.294C632.13 155.889 634.383 156.656 637.701 157.597C640.177 158.34 642.208 159.058 643.793 159.751C645.377 160.395 647.036 161.336 648.77 162.574C650.503 163.763 651.791 165.323 652.632 167.254C653.524 169.136 653.97 171.364 653.97 173.94C653.97 179.238 652.137 183.349 648.473 186.271C644.857 189.143 639.93 190.579 633.69 190.579Z" fill="#FF9F1C"/>
<rect x="-227" y="138.191" width="508" height="52" fill="#FF9F1C"/>
<rect x="-227" y="75.1914" width="590" height="52" fill="#38A2DA"/>
<path d="M-1351 11.5987L328.35 11.1914L300.5 37.1914L330 65.1913L-1351 65.1914L-1351 11.5987Z" fill="#F14E38"/>
<mask id="path-6-outside-1_2115_109" maskUnits="userSpaceOnUse" x="292.754" y="0.779297" width="366" height="72" fill="black">
<rect fill="white" x="292.754" y="0.779297" width="366" height="72"/>
<path d="M347.868 57.168C342.569 62.3679 336.057 64.9678 328.332 64.9678C320.606 64.9678 314.069 62.3679 308.721 57.168C303.422 51.9186 300.772 45.4559 300.772 37.7799C300.772 30.1039 303.422 23.666 308.721 18.4661C314.069 13.2167 320.606 10.592 328.332 10.592C336.057 10.592 342.569 13.2167 347.868 18.4661C353.217 23.666 355.891 30.1039 355.891 37.7799C355.891 45.4559 353.217 51.9186 347.868 57.168ZM319.195 46.8426C321.621 49.2196 324.667 50.4082 328.332 50.4082C331.996 50.4082 335.017 49.2196 337.394 46.8426C339.821 44.416 341.034 41.3951 341.034 37.7799C341.034 34.1648 339.821 31.1687 337.394 28.7916C335.017 26.365 331.996 25.1517 328.332 25.1517C324.667 25.1517 321.621 26.365 319.195 28.7916C316.818 31.1687 315.629 34.1648 315.629 37.7799C315.629 41.3951 316.818 44.416 319.195 46.8426ZM389.244 11.7806H404.101V63.7793H392.215L375.873 40.0084V63.7793H361.016V11.7806H372.902L389.244 35.5514V11.7806ZM425.917 50.1111H445.231V63.7793H411.06V11.7806H444.859V25.3002H425.917V30.9458H443.002V44.3169H425.917V50.1111ZM483.876 64.9678C478.23 64.9678 473.526 63.8041 469.762 61.4765C465.998 59.0994 463.473 55.9052 462.185 51.8939L474.888 44.5398C476.621 48.9473 479.741 51.151 484.247 51.151C487.615 51.151 489.299 50.2596 489.299 48.4768C489.299 47.9816 489.175 47.5359 488.927 47.1397C488.68 46.7435 488.209 46.3969 487.516 46.0997C486.822 45.8026 486.203 45.5797 485.659 45.4312C485.163 45.2331 484.272 44.9607 482.984 44.614C481.697 44.2674 480.731 43.995 480.087 43.7969C469.737 40.677 464.562 35.1057 464.562 27.083C464.562 22.3289 466.271 18.3918 469.688 15.2719C473.154 12.152 477.686 10.592 483.282 10.592C487.689 10.592 491.626 11.632 495.093 13.7119C498.609 15.7919 501.184 18.788 502.818 22.7003L490.487 29.9058C489.051 26.2412 486.674 24.4088 483.356 24.4088C482.068 24.4088 481.078 24.6812 480.385 25.2259C479.741 25.7212 479.419 26.365 479.419 27.1573C479.419 28.2468 479.988 29.0887 481.127 29.683C482.316 30.2773 484.569 31.0449 487.887 31.9858C490.363 32.7286 492.394 33.4467 493.978 34.14C495.563 34.7838 497.222 35.7247 498.955 36.9628C500.689 38.1513 501.976 39.7113 502.818 41.6427C503.71 43.5245 504.155 45.7531 504.155 48.3282C504.155 53.6272 502.323 57.7375 498.658 60.6594C495.043 63.5317 490.116 64.9678 483.876 64.9678ZM533.132 64.9678C525.307 64.9678 518.82 62.3679 513.67 57.168C508.519 51.9682 505.944 45.5055 505.944 37.7799C505.944 30.0544 508.519 23.5917 513.67 18.3918C518.82 13.192 525.307 10.592 533.132 10.592C537.936 10.592 542.368 11.731 546.429 14.0091C550.49 16.2871 553.659 19.3575 555.937 23.2203L543.012 30.6487C542.17 28.9649 540.857 27.6278 539.075 26.6373C537.292 25.6469 535.311 25.1517 533.132 25.1517C529.467 25.1517 526.496 26.3402 524.218 28.7173C521.94 31.0944 520.801 34.1153 520.801 37.7799C520.801 41.4446 521.94 44.4655 524.218 46.8426C526.496 49.2196 529.467 50.4082 533.132 50.4082C535.36 50.4082 537.341 49.913 539.075 48.9225C540.857 47.9321 542.17 46.5702 543.012 44.8369L555.937 52.2653C553.659 56.1776 550.49 59.2727 546.429 61.5508C542.368 63.8288 537.936 64.9678 533.132 64.9678ZM589.309 63.7793L587.526 57.0937H572.52L570.738 63.7793H554.767L571.332 11.7806H588.714L605.28 63.7793H589.309ZM575.715 45.2083H584.332L580.023 29.2373L575.715 45.2083ZM636.045 11.7806H650.901V63.7793H639.016L622.674 40.0084V63.7793H607.817V11.7806H619.702L636.045 35.5514V11.7806Z"/>
</mask>
<path d="M347.868 57.168C342.569 62.3679 336.057 64.9678 328.332 64.9678C320.606 64.9678 314.069 62.3679 308.721 57.168C303.422 51.9186 300.772 45.4559 300.772 37.7799C300.772 30.1039 303.422 23.666 308.721 18.4661C314.069 13.2167 320.606 10.592 328.332 10.592C336.057 10.592 342.569 13.2167 347.868 18.4661C353.217 23.666 355.891 30.1039 355.891 37.7799C355.891 45.4559 353.217 51.9186 347.868 57.168ZM319.195 46.8426C321.621 49.2196 324.667 50.4082 328.332 50.4082C331.996 50.4082 335.017 49.2196 337.394 46.8426C339.821 44.416 341.034 41.3951 341.034 37.7799C341.034 34.1648 339.821 31.1687 337.394 28.7916C335.017 26.365 331.996 25.1517 328.332 25.1517C324.667 25.1517 321.621 26.365 319.195 28.7916C316.818 31.1687 315.629 34.1648 315.629 37.7799C315.629 41.3951 316.818 44.416 319.195 46.8426ZM389.244 11.7806H404.101V63.7793H392.215L375.873 40.0084V63.7793H361.016V11.7806H372.902L389.244 35.5514V11.7806ZM425.917 50.1111H445.231V63.7793H411.06V11.7806H444.859V25.3002H425.917V30.9458H443.002V44.3169H425.917V50.1111ZM483.876 64.9678C478.23 64.9678 473.526 63.8041 469.762 61.4765C465.998 59.0994 463.473 55.9052 462.185 51.8939L474.888 44.5398C476.621 48.9473 479.741 51.151 484.247 51.151C487.615 51.151 489.299 50.2596 489.299 48.4768C489.299 47.9816 489.175 47.5359 488.927 47.1397C488.68 46.7435 488.209 46.3969 487.516 46.0997C486.822 45.8026 486.203 45.5797 485.659 45.4312C485.163 45.2331 484.272 44.9607 482.984 44.614C481.697 44.2674 480.731 43.995 480.087 43.7969C469.737 40.677 464.562 35.1057 464.562 27.083C464.562 22.3289 466.271 18.3918 469.688 15.2719C473.154 12.152 477.686 10.592 483.282 10.592C487.689 10.592 491.626 11.632 495.093 13.7119C498.609 15.7919 501.184 18.788 502.818 22.7003L490.487 29.9058C489.051 26.2412 486.674 24.4088 483.356 24.4088C482.068 24.4088 481.078 24.6812 480.385 25.2259C479.741 25.7212 479.419 26.365 479.419 27.1573C479.419 28.2468 479.988 29.0887 481.127 29.683C482.316 30.2773 484.569 31.0449 487.887 31.9858C490.363 32.7286 492.394 33.4467 493.978 34.14C495.563 34.7838 497.222 35.7247 498.955 36.9628C500.689 38.1513 501.976 39.7113 502.818 41.6427C503.71 43.5245 504.155 45.7531 504.155 48.3282C504.155 53.6272 502.323 57.7375 498.658 60.6594C495.043 63.5317 490.116 64.9678 483.876 64.9678ZM533.132 64.9678C525.307 64.9678 518.82 62.3679 513.67 57.168C508.519 51.9682 505.944 45.5055 505.944 37.7799C505.944 30.0544 508.519 23.5917 513.67 18.3918C518.82 13.192 525.307 10.592 533.132 10.592C537.936 10.592 542.368 11.731 546.429 14.0091C550.49 16.2871 553.659 19.3575 555.937 23.2203L543.012 30.6487C542.17 28.9649 540.857 27.6278 539.075 26.6373C537.292 25.6469 535.311 25.1517 533.132 25.1517C529.467 25.1517 526.496 26.3402 524.218 28.7173C521.94 31.0944 520.801 34.1153 520.801 37.7799C520.801 41.4446 521.94 44.4655 524.218 46.8426C526.496 49.2196 529.467 50.4082 533.132 50.4082C535.36 50.4082 537.341 49.913 539.075 48.9225C540.857 47.9321 542.17 46.5702 543.012 44.8369L555.937 52.2653C553.659 56.1776 550.49 59.2727 546.429 61.5508C542.368 63.8288 537.936 64.9678 533.132 64.9678ZM589.309 63.7793L587.526 57.0937H572.52L570.738 63.7793H554.767L571.332 11.7806H588.714L605.28 63.7793H589.309ZM575.715 45.2083H584.332L580.023 29.2373L575.715 45.2083ZM636.045 11.7806H650.901V63.7793H639.016L622.674 40.0084V63.7793H607.817V11.7806H619.702L636.045 35.5514V11.7806Z" fill="#F14E38"/>
<path d="M347.868 57.168L353.044 62.4418L353.044 62.4414L347.868 57.168ZM308.721 57.168L303.521 62.4172L303.545 62.4416L303.57 62.4658L308.721 57.168ZM308.721 18.4661L313.896 23.7399L313.896 23.7394L308.721 18.4661ZM347.868 18.4661L342.668 23.7153L342.693 23.7397L342.718 23.7639L347.868 18.4661ZM319.195 46.8426L313.917 52.0131L313.97 52.0676L314.024 52.1209L319.195 46.8426ZM337.394 46.8426L332.17 41.6178L332.17 41.6178L337.394 46.8426ZM337.394 28.7916L332.116 33.9622L332.169 34.0166L332.224 34.0699L337.394 28.7916ZM319.195 28.7916L313.97 23.5668V23.5668L319.195 28.7916ZM347.868 57.168L342.693 51.8942C338.837 55.6785 334.209 57.579 328.332 57.579V64.9678V72.3567C337.905 72.3567 346.302 69.0573 353.044 62.4418L347.868 57.168ZM328.332 64.9678V57.579C322.454 57.579 317.787 55.677 313.871 51.8702L308.721 57.168L303.57 62.4658C310.352 69.0588 318.759 72.3567 328.332 72.3567V64.9678ZM308.721 57.168L313.921 51.9188C310.068 48.1017 308.161 43.5486 308.161 37.7799H300.772H293.384C293.384 47.3633 296.776 55.7356 303.521 62.4172L308.721 57.168ZM300.772 37.7799H308.161C308.161 32.0123 310.066 27.4983 313.896 23.7399L308.721 18.4661L303.546 13.1923C296.778 19.8336 293.384 28.1955 293.384 37.7799H300.772ZM308.721 18.4661L313.896 23.7394C317.817 19.8919 322.475 17.9809 328.332 17.9809V10.592V3.20314C318.737 3.20314 310.322 6.54149 303.545 13.1928L308.721 18.4661ZM328.332 10.592V17.9809C334.187 17.9809 338.807 19.8903 342.668 23.7153L347.868 18.4661L353.069 13.2169C346.332 6.54311 337.927 3.20314 328.332 3.20314V10.592ZM347.868 18.4661L342.718 23.7639C346.589 27.5279 348.502 32.0346 348.502 37.7799H355.891H363.28C363.28 28.1733 359.844 19.8041 353.019 13.1683L347.868 18.4661ZM355.891 37.7799H348.502C348.502 43.5264 346.587 48.0722 342.693 51.8947L347.868 57.168L353.044 62.4414C359.846 55.7651 363.28 47.3854 363.28 37.7799H355.891ZM319.195 46.8426L314.024 52.1209C317.947 55.9639 322.902 57.7971 328.332 57.7971V50.4082V43.0193C326.433 43.0193 325.296 42.4754 324.365 41.5643L319.195 46.8426ZM328.332 50.4082V57.7971C333.762 57.7971 338.725 55.9618 342.619 52.0673L337.394 46.8426L332.17 41.6178C331.31 42.4775 330.231 43.0193 328.332 43.0193V50.4082ZM337.394 46.8426L342.619 52.0673C346.512 48.1748 348.423 43.2383 348.423 37.7799H341.034H333.645C333.645 39.5519 333.13 40.6571 332.17 41.6178L337.394 46.8426ZM341.034 37.7799H348.423C348.423 32.3207 346.509 27.3764 342.565 23.5133L337.394 28.7916L332.224 34.0699C333.133 34.9609 333.645 36.0089 333.645 37.7799H341.034ZM337.394 28.7916L342.673 23.621C338.789 19.6563 333.809 17.7628 328.332 17.7628V25.1517V32.5405C330.184 32.5405 331.246 33.0736 332.116 33.9622L337.394 28.7916ZM328.332 25.1517V17.7628C322.855 17.7628 317.883 19.6537 313.97 23.5668L319.195 28.7916L324.42 34.0163C325.36 33.0762 326.479 32.5405 328.332 32.5405V25.1517ZM319.195 28.7916L313.97 23.5668C310.096 27.441 308.24 32.3685 308.24 37.7799H315.629H323.018C323.018 35.9611 323.54 34.8963 324.42 34.0163L319.195 28.7916ZM315.629 37.7799H308.24C308.24 43.1911 310.093 48.1104 313.917 52.0131L319.195 46.8426L324.473 41.672C323.542 40.7215 323.018 39.5991 323.018 37.7799H315.629ZM389.244 11.7806V4.39168H381.855V11.7806H389.244ZM404.101 11.7806H411.49V4.39168H404.101V11.7806ZM404.101 63.7793V71.1682H411.49V63.7793H404.101ZM392.215 63.7793L386.127 67.9653L388.329 71.1682H392.215V63.7793ZM375.873 40.0084L381.962 35.8224L368.484 16.2186V40.0084H375.873ZM375.873 63.7793V71.1682H383.262V63.7793H375.873ZM361.016 63.7793H353.627V71.1682H361.016V63.7793ZM361.016 11.7806V4.39168H353.627V11.7806H361.016ZM372.902 11.7806L378.99 7.59454L376.788 4.39168H372.902V11.7806ZM389.244 35.5514L383.155 39.7374L396.633 59.3412V35.5514H389.244ZM389.244 11.7806V19.1694H404.101V11.7806V4.39168H389.244V11.7806ZM404.101 11.7806H396.712V63.7793H404.101H411.49V11.7806H404.101ZM404.101 63.7793V56.3904H392.215V63.7793V71.1682H404.101V63.7793ZM392.215 63.7793L398.304 59.5933L381.962 35.8224L375.873 40.0084L369.784 44.1945L386.127 67.9653L392.215 63.7793ZM375.873 40.0084H368.484V63.7793H375.873H383.262V40.0084H375.873ZM375.873 63.7793V56.3904H361.016V63.7793V71.1682H375.873V63.7793ZM361.016 63.7793H368.405V11.7806H361.016H353.627V63.7793H361.016ZM361.016 11.7806V19.1694H372.902V11.7806V4.39168H361.016V11.7806ZM372.902 11.7806L366.813 15.9666L383.155 39.7374L389.244 35.5514L395.333 31.3654L378.99 7.59454L372.902 11.7806ZM389.244 35.5514H396.633V11.7806H389.244H381.855V35.5514H389.244ZM425.917 50.1111H418.528V57.4999H425.917V50.1111ZM445.231 50.1111H452.62V42.7222H445.231V50.1111ZM445.231 63.7793V71.1682H452.62V63.7793H445.231ZM411.06 63.7793H403.671V71.1682H411.06V63.7793ZM411.06 11.7806V4.39168H403.671V11.7806H411.06ZM444.859 11.7806H452.248V4.39168H444.859V11.7806ZM444.859 25.3002V32.6891H452.248V25.3002H444.859ZM425.917 25.3002V17.9114H418.528V25.3002H425.917ZM425.917 30.9458H418.528V38.3347H425.917V30.9458ZM443.002 30.9458H450.391V23.5569H443.002V30.9458ZM443.002 44.3169V51.7058H450.391V44.3169H443.002ZM425.917 44.3169V36.928H418.528V44.3169H425.917ZM425.917 50.1111V57.4999H445.231V50.1111V42.7222H425.917V50.1111ZM445.231 50.1111H437.842V63.7793H445.231H452.62V50.1111H445.231ZM445.231 63.7793V56.3904H411.06V63.7793V71.1682H445.231V63.7793ZM411.06 63.7793H418.449V11.7806H411.06H403.671V63.7793H411.06ZM411.06 11.7806V19.1694H444.859V11.7806V4.39168H411.06V11.7806ZM444.859 11.7806H437.471V25.3002H444.859H452.248V11.7806H444.859ZM444.859 25.3002V17.9114H425.917V25.3002V32.6891H444.859V25.3002ZM425.917 25.3002H418.528V30.9458H425.917H433.306V25.3002H425.917ZM425.917 30.9458V38.3347H443.002V30.9458V23.5569H425.917V30.9458ZM443.002 30.9458H435.613V44.3169H443.002H450.391V30.9458H443.002ZM443.002 44.3169V36.928H425.917V44.3169V51.7058H443.002V44.3169ZM425.917 44.3169H418.528V50.1111H425.917H433.306V44.3169H425.917ZM469.762 61.4765L465.816 67.7237L465.846 67.7424L465.876 67.7608L469.762 61.4765ZM462.185 51.8939L458.483 45.4993L453.33 48.4827L455.15 54.1521L462.185 51.8939ZM474.888 44.5398L481.764 41.8356L478.62 33.8411L471.185 38.1452L474.888 44.5398ZM488.927 47.1397L482.661 51.0558L482.661 51.0558L488.927 47.1397ZM487.516 46.0997L484.605 52.8912H484.605L487.516 46.0997ZM485.659 45.4312L482.915 52.2916L483.307 52.4485L483.715 52.5597L485.659 45.4312ZM482.984 44.614L484.905 37.4792V37.4792L482.984 44.614ZM480.087 43.7969L482.26 36.7348L482.24 36.7286L482.22 36.7225L480.087 43.7969ZM469.688 15.2719L464.745 9.77979L464.725 9.79748L464.706 9.81532L469.688 15.2719ZM495.093 13.7119L491.291 20.0478L491.311 20.0597L491.331 20.0714L495.093 13.7119ZM502.818 22.7003L506.546 29.0799L512.128 25.818L509.636 19.8523L502.818 22.7003ZM490.487 29.9058L483.608 32.6018L486.759 40.6424L494.215 36.2854L490.487 29.9058ZM480.385 25.2259L484.89 31.0825L484.92 31.0594L484.95 31.036L480.385 25.2259ZM481.127 29.683L477.71 36.2338L477.766 36.2633L477.823 36.2918L481.127 29.683ZM487.887 31.9858L490.01 24.9085L489.957 24.8925L489.903 24.8772L487.887 31.9858ZM493.978 34.14L491.017 40.9094L491.107 40.9487L491.197 40.9856L493.978 34.14ZM498.956 36.9628L494.661 42.9754L494.718 43.0166L494.777 43.0566L498.956 36.9628ZM502.818 41.6427L496.045 44.5952L496.091 44.7012L496.141 44.8058L502.818 41.6427ZM498.658 60.6594L503.255 66.4446L503.265 66.4367L498.658 60.6594ZM483.876 64.9678V57.579C479.229 57.579 475.963 56.6235 473.648 55.1922L469.762 61.4765L465.876 67.7608C471.089 70.9846 477.231 72.3567 483.876 72.3567V64.9678ZM469.762 61.4765L473.708 55.2293C471.32 53.7214 469.946 51.8975 469.22 49.6356L462.185 51.8939L455.15 54.1521C456.999 59.9129 460.676 64.4775 465.816 67.7237L469.762 61.4765ZM462.185 51.8939L465.887 58.2884L478.59 50.9343L474.888 44.5398L471.185 38.1452L458.483 45.4993L462.185 51.8939ZM474.888 44.5398L468.011 47.2439C469.279 50.4664 471.273 53.4201 474.264 55.5334C477.283 57.6658 480.749 58.5399 484.247 58.5399V51.151V43.7622C483.239 43.7622 482.891 43.5344 482.79 43.4631C482.662 43.3726 482.23 43.0206 481.764 41.8356L474.888 44.5398ZM484.247 51.151V58.5399C486.342 58.5399 489.055 58.3035 491.493 57.0127C492.822 56.3092 494.207 55.217 495.236 53.5837C496.281 51.9241 496.687 50.1319 496.687 48.4768H489.299H481.91C481.91 47.7131 482.106 46.701 482.73 45.7099C483.338 44.7451 484.092 44.21 484.579 43.9523C485.028 43.7142 485.291 43.6867 485.173 43.7074C485.073 43.7251 484.784 43.7622 484.247 43.7622V51.151ZM489.299 48.4768H496.687C496.687 46.6836 496.219 44.8656 495.193 43.2236L488.927 47.1397L482.661 51.0558C482.13 50.2061 481.91 49.2796 481.91 48.4768H489.299ZM488.927 47.1397L495.193 43.2236C493.792 40.9816 491.726 39.8654 490.426 39.3083L487.516 46.0997L484.605 52.8912C484.572 52.8772 484.337 52.7751 484.006 52.531C483.672 52.2852 483.138 51.8186 482.661 51.0558L488.927 47.1397ZM487.516 46.0997L490.426 39.3083C489.516 38.9182 488.565 38.5652 487.603 38.3026L485.659 45.4312L483.715 52.5597C483.841 52.5943 484.129 52.687 484.605 52.8912L487.516 46.0997ZM485.659 45.4312L488.403 38.5708C487.457 38.1926 486.181 37.8226 484.905 37.4792L482.984 44.614L481.064 51.7489C481.658 51.909 482.118 52.0404 482.46 52.1447C482.83 52.2578 482.949 52.3055 482.915 52.2916L485.659 45.4312ZM482.984 44.614L484.905 37.4792C483.638 37.1379 482.775 36.893 482.26 36.7348L480.087 43.7969L477.914 50.8591C478.688 51.097 479.756 51.3969 481.064 51.7489L482.984 44.614ZM480.087 43.7969L482.22 36.7225C477.8 35.3901 475.253 33.7524 473.857 32.2498C472.614 30.9115 471.951 29.3418 471.951 27.083H464.562H457.173C457.173 32.847 459.098 38.0743 463.03 42.3072C466.809 46.3759 472.025 49.0838 477.955 50.8714L480.087 43.7969ZM464.562 27.083H471.951C471.951 24.3403 472.833 22.4054 474.67 20.7285L469.688 15.2719L464.706 9.81532C459.708 14.3783 457.173 20.3174 457.173 27.083H464.562ZM469.688 15.2719L474.631 20.764C476.479 19.1 479.126 17.9809 483.282 17.9809V10.592V3.20314C476.245 3.20314 469.829 5.20395 464.745 9.77979L469.688 15.2719ZM483.282 10.592V17.9809C486.475 17.9809 489.076 18.7184 491.291 20.0478L495.093 13.7119L498.894 7.37603C494.177 4.54554 488.903 3.20314 483.282 3.20314V10.592ZM495.093 13.7119L491.331 20.0714C493.422 21.3084 494.955 23.0456 496 25.5483L502.818 22.7003L509.636 19.8523C507.413 14.5304 503.796 10.2753 498.855 7.35244L495.093 13.7119ZM502.818 22.7003L499.09 16.3207L486.759 23.5263L490.487 29.9058L494.215 36.2854L506.546 29.0799L502.818 22.7003ZM490.487 29.9058L497.367 27.2098C496.308 24.5092 494.669 21.8822 492.138 19.931C489.52 17.9127 486.465 17.0199 483.356 17.0199V24.4088V31.7977C483.5 31.7977 483.499 31.8166 483.405 31.7862C483.302 31.7531 483.195 31.696 483.116 31.6351C482.962 31.5163 483.23 31.6378 483.608 32.6018L490.487 29.9058ZM483.356 24.4088V17.0199C481.149 17.0199 478.294 17.4713 475.82 19.4159L480.385 25.2259L484.95 31.036C483.861 31.8911 482.988 31.7977 483.356 31.7977V24.4088ZM480.385 25.2259L475.879 19.3694C473.471 21.2222 472.03 24.0044 472.03 27.1573H479.419H486.808C486.808 27.7908 486.671 28.5804 486.269 29.3846C485.87 30.183 485.338 30.7373 484.89 31.0825L480.385 25.2259ZM479.419 27.1573H472.03C472.03 31.5497 474.659 34.6424 477.71 36.2338L481.127 29.683L484.545 23.1321C484.782 23.2555 485.406 23.6379 485.966 24.4658C486.569 25.3564 486.808 26.3378 486.808 27.1573H479.419ZM481.127 29.683L477.823 36.2918C479.711 37.236 482.594 38.1648 485.871 39.0944L487.887 31.9858L489.903 24.8772C486.545 23.9249 484.921 23.3185 484.432 23.0742L481.127 29.683ZM487.887 31.9858L485.764 39.063C488.079 39.7577 489.803 40.3783 491.017 40.9094L493.978 34.14L496.94 27.3706C494.985 26.5151 492.647 25.6996 490.01 24.9085L487.887 31.9858ZM493.978 34.14L491.197 40.9856C492.135 41.3665 493.288 41.995 494.661 42.9754L498.956 36.9628L503.25 30.9502C501.156 29.4545 498.991 28.2012 496.759 27.2945L493.978 34.14ZM498.956 36.9628L494.777 43.0566C495.365 43.4599 495.755 43.93 496.045 44.5952L502.818 41.6427L509.592 38.6902C508.198 35.4926 506.013 32.8428 503.134 30.869L498.956 36.9628ZM502.818 41.6427L496.141 44.8058C496.466 45.4933 496.766 46.5942 496.766 48.3282H504.155H511.544C511.544 44.912 510.953 41.5558 509.496 38.4796L502.818 41.6427ZM504.155 48.3282H496.766C496.766 51.7108 495.714 53.5571 494.052 54.882L498.658 60.6594L503.265 66.4367C508.932 61.9179 511.544 55.5435 511.544 48.3282H504.155ZM498.658 60.6594L494.062 54.8742C492.147 56.3953 489.03 57.579 483.876 57.579V64.9678V72.3567C491.201 72.3567 497.939 70.668 503.255 66.4445L498.658 60.6594ZM513.67 57.168L518.919 51.9684L513.67 57.168ZM513.67 18.3918L518.919 23.5915V23.5915L513.67 18.3918ZM546.429 14.0091L550.044 7.56492V7.56492L546.429 14.0091ZM555.937 23.2203L559.619 29.6265L566.097 25.9032L562.302 19.4668L555.937 23.2203ZM543.012 30.6487L536.403 33.9531L539.905 40.9566L546.693 37.0549L543.012 30.6487ZM539.075 26.6373L535.486 33.0964V33.0964L539.075 26.6373ZM524.218 28.7173L529.553 33.8297V33.8297L524.218 28.7173ZM524.218 46.8426L529.553 41.7302V41.7302L524.218 46.8426ZM539.075 48.9225L535.486 42.4635L535.447 42.4851L535.409 42.5072L539.075 48.9225ZM543.012 44.8369L546.693 38.4306L539.826 34.4838L536.365 41.6087L543.012 44.8369ZM555.937 52.2653L562.322 55.9833L566.061 49.5617L559.619 45.859L555.937 52.2653ZM546.429 61.5508L550.044 67.9949L546.429 61.5508ZM533.132 64.9678V57.579C527.128 57.579 522.579 55.6634 518.919 51.9684L513.67 57.168L508.42 62.3677C515.061 69.0724 523.487 72.3567 533.132 72.3567V64.9678ZM513.67 57.168L518.919 51.9684C515.222 48.2351 513.333 43.6781 513.333 37.7799H505.944H498.555C498.555 47.3328 501.817 55.7012 508.42 62.3677L513.67 57.168ZM505.944 37.7799H513.333C513.333 31.8817 515.222 27.3247 518.919 23.5915L513.67 18.3918L508.42 13.1922C501.817 19.8587 498.555 28.2271 498.555 37.7799H505.944ZM513.67 18.3918L518.919 23.5915C522.579 19.8965 527.128 17.9809 533.132 17.9809V10.592V3.20314C523.487 3.20314 515.061 6.48743 508.42 13.1922L513.67 18.3918ZM533.132 10.592V17.9809C536.711 17.9809 539.893 18.8147 542.814 20.4532L546.429 14.0091L550.044 7.56492C544.843 4.64732 539.16 3.20314 533.132 3.20314V10.592ZM546.429 14.0091L542.814 20.4532C545.782 22.1184 547.983 24.279 549.573 26.9737L555.937 23.2203L562.302 19.4668C559.335 14.436 555.197 10.4558 550.044 7.56492L546.429 14.0091ZM555.937 23.2203L552.255 16.814L539.33 24.2424L543.012 30.6487L546.693 37.0549L559.619 29.6265L555.937 23.2203ZM543.012 30.6487L549.62 27.3443C548.057 24.2167 545.634 21.8287 542.663 20.1783L539.075 26.6373L535.486 33.0964C536.081 33.4269 536.283 33.7131 536.403 33.9531L543.012 30.6487ZM539.075 26.6373L542.663 20.1783C539.708 18.5364 536.478 17.7628 533.132 17.7628V25.1517V32.5405C534.144 32.5405 534.876 32.7574 535.486 33.0964L539.075 26.6373ZM533.132 25.1517V17.7628C527.704 17.7628 522.719 19.6018 518.883 23.6049L524.218 28.7173L529.553 33.8297C530.272 33.0786 531.23 32.5405 533.132 32.5405V25.1517ZM524.218 28.7173L518.883 23.6049C515.133 27.5179 513.412 32.4443 513.412 37.7799H520.801H528.19C528.19 35.7862 528.746 34.6709 529.553 33.8297L524.218 28.7173ZM520.801 37.7799H513.412C513.412 43.1155 515.133 48.042 518.883 51.955L524.218 46.8426L529.553 41.7302C528.746 40.889 528.19 39.7737 528.19 37.7799H520.801ZM524.218 46.8426L518.883 51.955C522.719 55.9581 527.704 57.7971 533.132 57.7971V50.4082V43.0193C531.23 43.0193 530.272 42.4812 529.553 41.7302L524.218 46.8426ZM533.132 50.4082V57.7971C536.493 57.7971 539.765 57.0381 542.741 55.3379L539.075 48.9225L535.409 42.5072C534.917 42.7879 534.227 43.0193 533.132 43.0193V50.4082ZM539.075 48.9225L542.663 55.3816C545.691 53.6994 548.113 51.246 549.658 48.0651L543.012 44.8369L536.365 41.6087C536.227 41.8944 536.024 42.1647 535.486 42.4635L539.075 48.9225ZM543.012 44.8369L539.33 51.2432L552.255 58.6716L555.937 52.2653L559.619 45.859L546.693 38.4306L543.012 44.8369ZM555.937 52.2653L549.552 48.5473C547.957 51.2864 545.759 53.4545 542.814 55.1066L546.429 61.5508L550.044 67.9949C555.22 65.0909 559.361 61.0688 562.322 55.9833L555.937 52.2653ZM546.429 61.5508L542.814 55.1066C539.893 56.7451 536.711 57.579 533.132 57.579V64.9678V72.3567C539.16 72.3567 544.843 70.9125 550.044 67.9949L546.429 61.5508ZM589.309 63.7793L582.169 65.6831L583.632 71.1682H589.309V63.7793ZM587.526 57.0937L594.665 55.1899L593.202 49.7049H587.526V57.0937ZM572.52 57.0937V49.7049H566.844L565.381 55.1899L572.52 57.0937ZM570.738 63.7793V71.1682H576.414L577.877 65.6831L570.738 63.7793ZM554.767 63.7793L547.726 61.5365L544.658 71.1682H554.767V63.7793ZM571.332 11.7806V4.39168H565.931L564.292 9.53773L571.332 11.7806ZM588.714 11.7806L595.755 9.53773L594.115 4.39168H588.714V11.7806ZM605.28 63.7793V71.1682H615.388L612.32 61.5365L605.28 63.7793ZM575.715 45.2083L568.581 43.2838L566.068 52.5972H575.715V45.2083ZM584.332 45.2083V52.5972H593.978L591.465 43.2838L584.332 45.2083ZM580.023 29.2373L587.157 27.3128L580.023 0.86833L572.889 27.3128L580.023 29.2373ZM589.309 63.7793L596.448 61.8755L594.665 55.1899L587.526 57.0937L580.386 58.9976L582.169 65.6831L589.309 63.7793ZM587.526 57.0937V49.7049H572.52V57.0937V64.4826H587.526V57.0937ZM572.52 57.0937L565.381 55.1899L563.598 61.8755L570.738 63.7793L577.877 65.6831L579.66 58.9976L572.52 57.0937ZM570.738 63.7793V56.3904H554.767V63.7793V71.1682H570.738V63.7793ZM554.767 63.7793L561.807 66.0221L578.372 14.0234L571.332 11.7806L564.292 9.53773L547.726 61.5365L554.767 63.7793ZM571.332 11.7806V19.1694H588.714V11.7806V4.39168H571.332V11.7806ZM588.714 11.7806L581.674 14.0234L598.239 66.0221L605.28 63.7793L612.32 61.5365L595.755 9.53773L588.714 11.7806ZM605.28 63.7793V56.3904H589.309V63.7793V71.1682H605.28V63.7793ZM575.715 45.2083V52.5972H584.332V45.2083V37.8194H575.715V45.2083ZM584.332 45.2083L591.465 43.2838L587.157 27.3128L580.023 29.2373L572.889 31.1618L577.198 47.1328L584.332 45.2083ZM580.023 29.2373L572.889 27.3128L568.581 43.2838L575.715 45.2083L582.848 47.1328L587.157 31.1618L580.023 29.2373ZM636.045 11.7806V4.39168H628.656V11.7806H636.045ZM650.901 11.7806H658.29V4.39168H650.901V11.7806ZM650.901 63.7793V71.1682H658.29V63.7793H650.901ZM639.016 63.7793L632.927 67.9653L635.129 71.1682H639.016V63.7793ZM622.674 40.0084L628.762 35.8224L615.285 16.2186V40.0084H622.674ZM622.674 63.7793V71.1682H630.062V63.7793H622.674ZM607.817 63.7793H600.428V71.1682H607.817V63.7793ZM607.817 11.7806V4.39168H600.428V11.7806H607.817ZM619.702 11.7806L625.791 7.59454L623.589 4.39168H619.702V11.7806ZM636.045 35.5514L629.956 39.7374L643.434 59.3412V35.5514H636.045ZM636.045 11.7806V19.1694H650.901V11.7806V4.39168H636.045V11.7806ZM650.901 11.7806H643.513V63.7793H650.901H658.29V11.7806H650.901ZM650.901 63.7793V56.3904H639.016V63.7793V71.1682H650.901V63.7793ZM639.016 63.7793L645.105 59.5933L628.762 35.8224L622.674 40.0084L616.585 44.1945L632.927 67.9653L639.016 63.7793ZM622.674 40.0084H615.285V63.7793H622.674H630.062V40.0084H622.674ZM622.674 63.7793V56.3904H607.817V63.7793V71.1682H622.674V63.7793ZM607.817 63.7793H615.206V11.7806H607.817H600.428V63.7793H607.817ZM607.817 11.7806V19.1694H619.702V11.7806V4.39168H607.817V11.7806ZM619.702 11.7806L613.613 15.9666L629.956 39.7374L636.045 35.5514L642.133 31.3654L625.791 7.59454L619.702 11.7806ZM636.045 35.5514H643.434V11.7806H636.045H628.656V35.5514H636.045Z" fill="white" mask="url(#path-6-outside-1_2115_109)"/>
</svg>
