<svg width="256" height="65" viewBox="0 0 256 65" fill="none" xmlns="http://www.w3.org/2000/svg">
<g clip-path="url(#clip0_2130_64)">
<path d="M81.7969 50.9425L84.9904 43.525C88.4414 46.1005 93.0254 47.44 97.5584 47.44C100.906 47.44 103.018 46.152 103.018 44.195C102.967 38.735 82.9814 43.01 82.8269 29.3085C82.7754 22.355 88.9569 16.998 97.7129 16.998C102.915 16.998 108.118 18.2855 111.826 21.2215L108.839 28.7935C105.439 26.63 101.216 25.085 97.1979 25.085C94.4679 25.085 92.6654 26.3725 92.6654 28.021C92.7169 33.378 112.857 30.442 113.063 43.525C113.063 50.6335 107.036 55.63 98.3829 55.63C92.0469 55.63 86.2264 54.136 81.7969 50.9425ZM204.337 40.8465L213.145 45.74C209.848 51.6635 203.564 55.63 196.301 55.63C185.639 55.63 176.985 46.9765 176.985 36.314C176.985 25.6515 185.639 16.998 196.301 16.998C203.513 16.998 209.848 21.0155 213.145 26.888L204.337 31.781C202.74 28.9995 199.752 27.094 196.301 27.094C191.202 27.094 187.081 31.2145 187.081 36.314C187.081 41.4135 191.202 45.534 196.301 45.534C199.752 45.534 202.74 43.628 204.336 40.8465M117.492 0.978516H128.515V54.9085H117.492V0.978516ZM217.471 0.978516H228.494V32.6565L240.959 17.7705H254.455L239.054 35.6955L255.691 54.9085H241.578L228.494 38.735V54.9085H217.471V0.978516ZM161.275 40.95V31.8325C159.678 29.154 156.382 27.094 152.673 27.094C147.573 27.094 143.453 31.2145 143.453 36.314C143.453 41.4135 147.573 45.534 152.673 45.534C156.382 45.534 159.678 43.577 161.275 40.95ZM161.275 17.7705H172.298V54.857H161.275V50.479C159.472 53.518 154.991 55.63 150.304 55.63C140.62 55.63 132.997 46.9765 132.997 36.2625C132.997 25.5485 140.62 16.998 150.304 16.998C154.991 16.998 159.472 19.11 161.275 22.149V17.7705Z" fill="black"/>
<path d="M13.6493 40.8976C13.6493 44.6576 10.6103 47.6971 6.84978 47.6971C5.95664 47.698 5.0721 47.5227 4.24679 47.1813C3.42148 46.8399 2.6716 46.3391 2.04008 45.7075C1.40856 45.0759 0.907792 44.326 0.566443 43.5007C0.225093 42.6753 0.049864 41.7908 0.0507849 40.8976C0.0507849 37.1376 3.08978 34.0986 6.84978 34.0986H13.6493V40.8976ZM17.0488 40.8976C17.0488 37.1376 20.0878 34.0986 23.8478 34.0986C27.6078 34.0986 30.6473 37.1376 30.6473 40.8976V57.8956C30.6473 61.6556 27.6083 64.6951 23.8478 64.6951C22.9547 64.6959 22.0702 64.5206 21.2449 64.1791C20.4197 63.8377 19.6699 63.3369 19.0384 62.7053C18.4069 62.0737 17.9062 61.3239 17.5649 60.4985C17.2236 59.6732 17.0484 58.7887 17.0493 57.8956L17.0488 40.8976Z" fill="#E01E5A"/>
<path d="M23.8485 13.5985C22.9554 13.5993 22.0709 13.4239 21.2457 13.0825C20.4204 12.7411 19.6706 12.2402 19.0391 11.6087C18.4077 10.9771 17.9069 10.2272 17.5656 9.40191C17.2243 8.57661 17.0491 7.6921 17.05 6.799C17.0495 3.039 20.0885 0 23.8485 0C27.6085 0 30.648 3.039 30.648 6.799V13.5985H23.8485ZM23.8485 17.0495C27.6085 17.0495 30.648 20.0885 30.648 23.8485C30.648 27.6085 27.609 30.648 23.8485 30.648H6.799C5.90586 30.6489 5.02132 30.4736 4.19601 30.1322C3.3707 29.7907 2.62082 29.2899 1.9893 28.6583C1.35778 28.0268 0.857011 27.2769 0.515661 26.4515C0.174312 25.6262 -0.000917223 24.7416 3.61046e-06 23.8485C3.61046e-06 20.0885 3.039 17.05 6.799 17.05L23.8485 17.0495Z" fill="#36C5F0"/>
<path d="M51.0957 23.8485C51.0957 20.0885 54.1347 17.0495 57.8947 17.0495C61.6547 17.0495 64.6942 20.0885 64.6942 23.8485C64.6942 27.6085 61.6552 30.648 57.8947 30.648H51.0957V23.8485ZM47.6957 23.8485C47.6957 27.6085 44.6572 30.648 40.8967 30.648C40.0035 30.6489 39.119 30.4736 38.2937 30.1322C37.4684 29.7907 36.7185 29.2899 36.087 28.6583C35.4554 28.0268 34.9547 27.2769 34.6133 26.4515C34.272 25.6262 34.0967 24.7416 34.0977 23.8485V6.799C34.0977 3.039 37.1367 0 40.8967 0C44.6567 0 47.6962 3.039 47.6962 6.799L47.6957 23.8485Z" fill="#2EB67D"/>
<path d="M40.8967 51.0966C44.6567 51.0966 47.6962 54.1356 47.6962 57.8956C47.6962 61.6556 44.6572 64.6951 40.8967 64.6951C40.0035 64.696 39.119 64.5207 38.2937 64.1793C37.4684 63.8379 36.7185 63.3371 36.087 62.7055C35.4554 62.0739 34.9547 61.324 34.6133 60.4987C34.272 59.6733 34.0967 58.7888 34.0977 57.8956V51.0966H40.8967ZM40.8967 47.6966C40.0036 47.6975 39.1191 47.5222 38.2938 47.1808C37.4685 46.8395 36.7187 46.3387 36.0871 45.7072C35.4556 45.0756 34.9548 44.3258 34.6135 43.5005C34.2721 42.6752 34.0968 41.7907 34.0977 40.8976C34.0977 37.1376 37.1367 34.0986 40.8967 34.0986H57.9467C61.7067 34.0986 64.7457 37.1376 64.7457 40.8976C64.7457 44.6576 61.7067 47.6971 57.9462 47.6971L40.8967 47.6966Z" fill="#ECB22E"/>
</g>
<defs>
<clipPath id="clip0_2130_64">
<rect width="256" height="65" fill="white"/>
</clipPath>
</defs>
</svg>
