<svg width="243" height="24" viewBox="0 0 243 24" fill="none" xmlns="http://www.w3.org/2000/svg">
<g clip-path="url(#clip0_2115_269)">
<path d="M242.166 12.511C242.166 10.9329 241.539 9.60366 240.511 8.75846C240.524 8.61865 240.531 8.47663 240.531 8.33282C240.531 7.85024 240.493 7.452 240.465 7.16122C240.452 7.02853 240.437 6.87812 240.437 6.81573C240.437 6.58529 240.452 6.32583 240.467 6.05113C240.486 5.71619 240.507 5.33655 240.507 4.92495C240.507 2.72911 239.012 0.513438 235.672 0.513438C234.549 0.513438 233.698 0.763888 233.053 1.13157C232.074 0.787359 230.981 0.630115 229.623 0.630115C227.193 0.630115 224.999 1.35725 223.224 2.61561C223.142 2.5058 223.059 2.39702 222.968 2.29474C222.035 1.2522 220.738 0.723571 219.112 0.723571C218.837 0.723571 218.534 0.74535 218.151 0.772934C217.733 0.802923 217.214 0.840248 216.776 0.840248C216.302 0.840248 215.866 0.804793 215.48 0.773504C215.151 0.746703 214.866 0.723571 214.581 0.723571C213.371 0.723571 212.156 1.11189 211.219 1.93226C210.525 1.30981 209.472 0.723571 207.924 0.723571C207.261 0.723571 206.76 0.76038 206.319 0.792844C205.959 0.819324 205.675 0.840248 205.331 0.840248C205.113 0.840248 204.81 0.813625 204.517 0.787857C204.157 0.756266 203.786 0.723571 203.416 0.723571C200.939 0.723571 199.117 2.15034 198.492 4.4149C197.659 2.55187 196.206 0.606893 192.719 0.606893C191.823 0.606893 191.083 0.671501 190.367 0.733971C189.741 0.788623 189.149 0.840248 188.491 0.840248C187.962 0.840248 187.336 0.787394 186.672 0.73146C185.946 0.670218 185.195 0.606893 184.473 0.606893C182.861 0.606893 181.514 1.26023 180.606 2.36053C180.579 2.3382 180.551 2.31426 180.525 2.29287C179.104 1.15837 177.187 0.606893 174.664 0.606893C173.405 0.606893 172.39 0.688721 171.574 0.754485C171.004 0.800501 170.511 0.840248 170.086 0.840248C168.704 0.840248 167.938 0.77557 167.197 0.713028C166.579 0.660851 165.94 0.606893 165.087 0.606893C163.935 0.606893 162.934 0.905692 162.131 1.45072C161.351 1.01395 160.418 0.770156 159.365 0.770156H159.365C158.916 0.770245 158.48 0.78946 158.058 0.808034C157.682 0.824595 157.328 0.840248 157.006 0.840248C156.62 0.840248 156.217 0.824363 155.79 0.807535C155.325 0.789228 154.845 0.770299 154.343 0.770299C153.278 0.77021 152.349 0.982409 151.567 1.40292C150.879 0.995676 150.079 0.770156 149.205 0.770156C148.774 0.770245 148.332 0.803243 147.905 0.835155C147.563 0.86062 147.21 0.886976 146.962 0.886976C146.293 0.886976 145.695 0.856525 145.117 0.827088C144.569 0.799165 144.002 0.770299 143.412 0.770299C142.476 0.77021 141.608 0.989514 140.852 1.39331C140.002 0.748164 138.918 0.373396 137.69 0.373396C136.481 0.373396 135.502 0.689202 134.747 1.1927C133.893 0.879123 132.763 0.630115 131.29 0.630115C128.913 0.630115 126.772 1.39699 125.064 2.72076C124.129 1.49852 122.674 0.770156 120.919 0.770156H120.919C120.327 0.770227 119.759 0.79929 119.21 0.827409C118.638 0.856685 118.046 0.886976 117.392 0.886976C116.723 0.886976 116.125 0.856525 115.547 0.827088C114.999 0.799165 114.432 0.770299 113.842 0.770299C112.232 0.770156 110.812 1.4013 109.844 2.54749C109.267 3.23098 108.882 4.06594 108.696 5.00114C108.193 1.90899 105.833 0.770156 103.775 0.770156H103.775C103.077 0.770227 102.407 0.801498 101.76 0.831754C101.152 0.860157 100.577 0.886976 100.015 0.886976C99.5425 0.886976 99.0407 0.860603 98.5096 0.832662C97.9264 0.801997 97.3234 0.770299 96.6978 0.770299C95.7617 0.77021 94.8935 0.989496 94.1375 1.39329C93.288 0.748164 92.204 0.373396 90.9759 0.373396C89.7672 0.373396 88.7876 0.689237 88.0326 1.19267C87.179 0.879123 86.0491 0.630115 84.5759 0.630115C81.834 0.630115 79.407 1.65008 77.5957 3.36845C77.4425 3.18617 77.2798 3.01076 77.1062 2.8433C75.5679 1.35933 73.3345 0.606893 70.4684 0.606893C69.6268 0.606893 68.8338 0.678018 68.1341 0.740773C67.5637 0.791935 67.025 0.840248 66.5676 0.840248C65.1712 0.840248 64.4072 0.775427 63.6685 0.712761C63.055 0.660709 62.4207 0.606893 61.569 0.606893C59.0487 0.606893 57.2522 2.0296 56.6631 4.35241C55.8255 2.50855 54.3667 0.606893 50.9186 0.606893C50.0234 0.606893 49.283 0.6715 48.567 0.733971C47.9407 0.788623 47.349 0.840248 46.6908 0.840248C46.1625 0.840248 45.5357 0.787394 44.8722 0.73146C44.146 0.670218 43.3951 0.606893 42.6733 0.606893C41.5975 0.606893 40.6407 0.900243 39.8512 1.41965C39.0732 0.960398 38.1443 0.723571 37.0679 0.723571C36.793 0.723571 36.49 0.74535 36.1064 0.772916C35.6891 0.802923 35.1698 0.840248 34.7322 0.840248C34.2578 0.840248 33.8213 0.804793 33.4361 0.773504C33.1062 0.746703 32.8214 0.723571 32.5365 0.723571C31.3267 0.723571 30.1117 1.11191 29.1746 1.93228C28.4804 1.30982 27.4279 0.723571 25.8796 0.723571C25.2163 0.723571 24.7161 0.76038 24.2748 0.792843C23.9148 0.819324 23.6304 0.840248 23.2869 0.840248C23.0684 0.840248 22.7656 0.813625 22.4727 0.787875C22.1131 0.756266 21.7413 0.723571 21.3716 0.723571C20.5831 0.723571 19.8619 0.869702 19.2231 1.1396C18.3824 0.419447 17.2408 0 15.9065 0C14.6128 0 13.6793 0.360646 13.0062 0.867868C12.2913 0.750532 11.3258 0.630115 10.0203 0.630115C6.86637 0.630115 4.49562 1.29047 2.77256 2.64891C1.01984 4.03073 0.0933773 6.03659 0.0933773 8.44964C0.0933773 9.45576 0.272861 10.6436 0.879921 11.783C0.285478 12.5893 0 13.5573 0 14.4951C0 14.934 0.0244848 15.3361 0.0441582 15.6591C0.057452 15.8774 0.0699973 16.0836 0.0699973 16.2224C0.0699973 16.579 0.053389 16.8876 0.0358184 17.2143C0.0182122 17.5416 0 17.88 0 18.2531C0 21.1457 1.8061 23.0148 4.60129 23.0148C5.9316 23.0148 6.95055 22.6765 7.69721 22.1686C8.63334 22.3838 9.90658 22.5945 11.4452 22.5945C13.8898 22.5945 15.9491 22.1017 17.5819 21.1308C18.4831 22.0663 19.7669 22.5945 21.3248 22.5945C21.9236 22.5945 22.4372 22.5328 22.9339 22.4732C23.4134 22.4156 23.8662 22.3612 24.4315 22.3612C24.8437 22.3612 25.3454 22.4201 25.8306 22.477C26.3456 22.5375 26.8319 22.5945 27.3044 22.5945C28.6943 22.5945 29.8661 22.1662 30.7402 21.3953C31.8091 22.245 33.0276 22.5945 34.6621 22.5945C36.0375 22.5945 37.2315 22.2025 38.1405 21.5162C39.0026 22.1984 40.1097 22.5945 41.3653 22.5945C41.8452 22.5945 42.2877 22.5504 42.7155 22.5077C43.1098 22.4684 43.4822 22.4313 43.8645 22.4313C44.1255 22.4313 44.4903 22.4646 44.8765 22.4999C45.3621 22.5443 45.9123 22.5945 46.4573 22.5945C47.3372 22.5945 48.2398 22.4044 49.0256 21.967C49.8252 22.3759 50.7931 22.5945 51.8997 22.5945C52.4238 22.5945 52.8951 22.5466 53.3109 22.5044C53.697 22.4652 54.0305 22.4313 54.3989 22.4313C54.6651 22.4313 54.9446 22.4581 55.2986 22.4922C55.7729 22.5378 56.3632 22.5945 57.085 22.5945C57.827 22.5945 58.571 22.4362 59.2432 22.1082C59.9672 22.4438 60.7528 22.5945 61.499 22.5945C62.2044 22.5945 62.7684 22.5365 63.3138 22.4804C63.9099 22.4191 64.4728 22.3612 65.353 22.3612C66.4026 22.3612 67.0959 22.4233 67.7665 22.4833C68.3766 22.538 69.0075 22.5945 69.7909 22.5945C72.3022 22.5945 74.8361 20.8913 74.8361 17.086C74.8361 16.733 74.8091 16.4064 74.769 16.0934H75.027C75.5163 17.4012 76.2299 18.5542 77.1651 19.5104C79.1383 21.528 81.9916 22.5945 85.4167 22.5945C87.9311 22.5945 90.3397 21.962 92.1987 20.8135C92.2308 20.7937 92.2607 20.7724 92.2924 20.7523C93.184 21.9231 94.5713 22.5945 96.3007 22.5945C97.1444 22.5945 97.7468 22.535 98.3295 22.4774C98.9339 22.4176 99.5049 22.3612 100.482 22.3612C101.724 22.3612 103.169 22.4318 104.445 22.4942C105.547 22.548 106.498 22.5945 107.232 22.5945C108.705 22.5945 109.839 22.3243 110.713 21.8882C111.477 22.3431 112.396 22.5945 113.445 22.5945C114.249 22.5945 114.961 22.5299 115.649 22.4674C116.25 22.4128 116.818 22.3612 117.392 22.3612C117.949 22.3612 118.509 22.412 119.102 22.4659C119.798 22.5291 120.518 22.5945 121.34 22.5945C123.077 22.5945 124.47 21.9174 125.362 20.7361C127.183 21.9556 129.485 22.5945 132.131 22.5945C134.645 22.5945 137.054 21.962 138.913 20.8135C138.945 20.7937 138.975 20.7723 139.007 20.7522C139.898 21.9231 141.285 22.5945 143.015 22.5945C143.819 22.5945 144.531 22.5299 145.219 22.4674C145.816 22.4132 146.379 22.362 146.949 22.3612C147.043 22.367 147.289 22.4083 147.452 22.4358C147.873 22.5065 148.398 22.5945 148.948 22.5945C149.84 22.5945 150.735 22.3854 151.521 21.95C152.268 22.3656 153.153 22.5945 154.133 22.5945C154.609 22.5945 155.047 22.5638 155.47 22.5342C155.883 22.5052 156.273 22.4778 156.703 22.4778C157.109 22.4778 157.461 22.5118 157.868 22.5512C158.304 22.5934 158.799 22.6413 159.365 22.6413C160.381 22.6413 161.399 22.3746 162.271 21.8228C163.094 22.3432 164.057 22.5945 165.017 22.5945C165.735 22.5945 166.305 22.5362 166.857 22.4798C167.454 22.4188 168.018 22.3612 168.894 22.3612C170.197 22.3612 171.057 22.4251 171.888 22.487C172.631 22.5423 173.333 22.5945 174.22 22.5945C176.34 22.5945 178.206 22.153 179.71 21.3193C180.6 22.1216 181.794 22.5945 183.165 22.5945C183.645 22.5945 184.088 22.5504 184.516 22.5077C184.91 22.4684 185.282 22.4313 185.665 22.4313C185.926 22.4313 186.29 22.4646 186.677 22.4999C187.162 22.5443 187.712 22.5945 188.257 22.5945C189.137 22.5945 190.04 22.4043 190.826 21.967C191.625 22.3759 192.593 22.5945 193.7 22.5945C194.224 22.5945 194.695 22.5466 195.111 22.5044C195.497 22.4651 195.83 22.4313 196.199 22.4313C196.465 22.4313 196.745 22.4582 197.099 22.4922C197.573 22.5378 198.163 22.5945 198.885 22.5945C199.622 22.5945 200.362 22.4377 201.031 22.1138C201.713 22.4237 202.496 22.5945 203.369 22.5945C203.968 22.5945 204.482 22.5328 204.978 22.4731C205.458 22.4156 205.91 22.3612 206.476 22.3612C206.888 22.3612 207.39 22.4201 207.875 22.477C208.39 22.5375 208.876 22.5945 209.349 22.5945C210.739 22.5945 211.91 22.1662 212.785 21.3953C213.854 22.2449 215.072 22.5945 216.706 22.5945C219.099 22.5945 220.941 21.4068 221.689 19.5468C223.6 21.512 226.29 22.5945 229.272 22.5945C230.804 22.5945 231.935 22.3645 232.811 22.0217C233.537 22.4028 234.414 22.5945 235.439 22.5945C238.608 22.5945 240.577 20.6269 240.577 17.4594C240.577 17.0907 240.557 16.6918 240.531 16.2905C241.581 15.4695 242.166 14.1616 242.166 12.511Z" fill="white"/>
<path d="M3 18.3355C3 17.7052 3.06995 17.1217 3.06995 16.3048C3.06995 15.8146 3 15.231 3 14.5774C3 13.6205 3.63011 12.8736 5.21744 12.8736C6.3845 12.8736 7.1548 13.1536 7.24811 14.1106L7.27147 14.3441C7.36479 15.301 8.50863 15.6512 10.3293 15.6512C12.0565 15.6512 12.5933 15.2077 12.5933 14.5541C12.5933 14.0173 12.1732 13.7372 11.2629 13.6205C6.96803 12.9902 3.09331 12.36 3.09331 8.53199C3.09331 5.70751 4.93736 3.63011 10.0958 3.63011C12.36 3.63011 13.3636 4.05038 14.1106 4.05038C14.274 4.05038 14.3674 3.95693 14.4374 3.81688C14.6475 3.35003 14.951 3 15.978 3C17.5418 3 17.892 3.93356 17.892 4.6805C17.892 5.21744 17.8686 5.68429 17.8686 6.36114C17.8686 6.80462 17.9387 7.34157 17.9387 7.62165C17.9387 8.76534 17.2151 9.58237 15.4178 9.58237C14.204 9.58237 13.1303 9.18547 13.1303 8.39195V8.22854C13.1303 7.57492 12.5467 7.10807 10.8427 7.10807C9.30215 7.10807 8.74198 7.50483 8.74198 8.04177C8.74198 8.50863 9.02206 8.74198 9.90904 8.88202C17.2383 10.2125 18.4989 11.2163 18.4989 14.414C18.4989 18.0086 15.6979 19.7592 11.5197 19.7592C8.83544 19.7592 7.1548 18.9891 6.80462 18.9891C6.64122 18.9891 6.57127 19.0824 6.50118 19.3625C6.3845 19.806 5.80097 20.1795 4.6805 20.1795C3.44349 20.1795 3 19.5259 3 18.3355Z" fill="#F04A35"/>
<path d="M19.125 17.1918C19.125 15.5579 19.7551 14.7642 20.8756 14.7642C21.2024 14.7642 21.4124 14.811 21.7392 14.811C22.2294 14.811 22.4628 14.6476 22.5329 14.1807C22.5562 13.9006 22.6262 13.1537 22.6262 11.9166C22.6262 10.6794 22.5562 9.95583 22.5095 9.48898C22.4628 9.13895 22.3695 8.85872 21.8325 8.85872C21.5524 8.85872 21.249 8.92881 20.9689 8.92881C20.0586 8.92881 19.1949 8.04184 19.1949 6.31447C19.1949 4.77401 19.8252 3.72363 21.4358 3.72363C21.9493 3.72363 22.6963 3.84031 23.3497 3.84031C24.2835 3.84031 24.867 3.72363 25.9407 3.72363C26.8511 3.72363 27.3179 4.07366 27.808 4.84396L32.6398 12.2667V9.41903C32.6398 8.74204 32.3831 8.602 31.8461 8.48532C31.0059 8.32192 30.4457 7.59835 30.4457 6.26788C30.4457 4.51715 31.2626 3.72363 32.593 3.72363C33.0133 3.72363 33.8068 3.84031 34.7873 3.84031C35.6976 3.84031 36.7013 3.72363 37.1214 3.72363C38.5453 3.72363 39.4089 4.35389 39.4089 6.61792C39.4089 7.99511 38.802 8.92881 38.0317 8.92881C37.7984 8.92881 37.5882 8.85872 37.3549 8.85872C37.0281 8.85872 37.0047 8.99876 37.0047 9.67575V15.3011C37.0047 16.0246 37.1447 16.725 37.1447 17.6819C37.1447 19.0357 36.2344 19.7593 34.7172 19.7593C33.13 19.7593 32.4997 19.4093 31.4494 17.8219L26.9911 11.1229V13.9472C26.9911 14.4842 27.1779 14.6708 27.808 14.7175C29.1152 14.811 29.6053 15.7212 29.6053 17.1217C29.6053 18.8723 28.8584 19.7593 27.3645 19.7593C26.6877 19.7593 25.544 19.5259 24.4936 19.5259C23.1398 19.5259 22.3227 19.7593 21.389 19.7593C19.8486 19.7593 19.125 18.919 19.125 17.1918Z" fill="#F04A35"/>
<path d="M39.2266 17.4719C39.2266 15.7912 39.9501 15.1376 40.9072 14.9976C41.444 14.9043 41.6308 14.7409 41.7474 14.3907L43.4281 9.46559C43.6848 8.74202 43.5915 8.46194 43.3113 8.46194C43.1013 8.46194 42.7978 8.60198 42.0743 8.60198C41.2105 8.60198 40.5337 8.06518 40.5337 6.19777C40.5337 4.68054 41.2339 3.60693 42.7277 3.60693C43.9415 3.60693 45.4588 3.84029 46.7425 3.84029C48.3065 3.84029 49.4268 3.60693 50.9674 3.60693C52.718 3.60693 53.4649 4.1671 54.2118 6.011L57.503 14.2506C57.9233 15.3244 58.9737 15.4411 58.9737 17.4485C58.9737 18.8023 58.4367 19.7593 57.1296 19.7593C56.0325 19.7593 55.309 19.596 54.4453 19.596C53.4649 19.596 52.7413 19.7593 51.9478 19.7593C50.3139 19.7593 49.4502 19.1058 49.4502 17.4719C49.4502 16.2114 50.057 15.3478 51.0841 15.3478H51.4109C51.5976 15.3478 51.6444 15.2311 51.6444 14.811C51.6444 14.7175 51.6444 14.5541 51.5743 14.3675C51.5043 14.1573 51.4109 14.064 51.2475 14.064C50.8974 14.064 49.8936 14.2506 48.9133 14.2506C48.0264 14.2506 46.8126 14.0173 46.5792 14.0173C46.439 14.0173 46.3691 14.064 46.2291 14.3207C46.1356 14.5075 46.089 14.6941 46.089 14.7642C46.089 15.091 46.1823 15.301 46.5559 15.301H46.8126C47.7463 15.301 48.4699 16.188 48.4699 17.4719C48.4699 19.1058 47.8863 19.7593 46.5091 19.7593C45.6921 19.7593 44.7118 19.596 43.9182 19.596C42.9379 19.596 42.1442 19.7593 41.4206 19.7593C40.2769 19.7593 39.2266 19.1058 39.2266 17.4719ZM47.3494 11.1696C47.4894 11.1696 48.1898 11.0763 48.6099 11.0763C49.1934 11.0763 49.9404 11.1696 50.3371 11.1696C50.5005 11.1696 50.5706 11.0995 50.5005 10.9595L49.7302 9.2556C49.4735 8.69529 49.3335 8.60198 48.8666 8.60198H48.6799C48.2131 8.60198 48.0264 8.67207 47.8162 9.23224L47.186 10.8895C47.116 11.0763 47.186 11.1696 47.3494 11.1696Z" fill="#F04A35"/>
<path d="M59.4141 17.1684C59.4141 15.5579 60.0443 14.7642 61.3514 14.7642C61.7016 14.7642 62.0984 14.811 62.4485 14.811C62.962 14.811 63.1487 14.6708 63.2188 14.1106C63.2888 13.5972 63.3355 12.5001 63.3355 11.6131C63.3355 10.656 63.2888 9.72245 63.2188 9.13892C63.1721 8.69529 63.0087 8.55525 62.5886 8.55525C62.1918 8.55525 61.7483 8.60198 61.3514 8.60198C60.0443 8.60198 59.4141 7.80832 59.4141 6.19777C59.4141 4.47055 60.1376 3.60693 61.6081 3.60693C63.2654 3.60693 63.8957 3.84029 66.6033 3.84029C67.8171 3.84029 69.1242 3.60693 70.5014 3.60693C74.9129 3.60693 76.4068 5.70755 76.4068 8.64871C76.4068 12.1732 74.0026 13.7138 70.8516 13.7138C69.7311 13.7138 68.6807 13.5738 68.2372 13.5738C67.7004 13.5738 67.5604 13.7606 67.5604 14.1807C67.5604 14.6941 67.8171 14.811 68.3306 14.811C68.8675 14.811 69.4744 14.7642 70.0112 14.7642C71.2951 14.7642 71.9485 15.5579 71.9485 17.1684C71.9485 18.8957 71.2016 19.7593 69.8244 19.7593C68.3773 19.7593 67.537 19.5259 65.3895 19.5259C63.5223 19.5259 62.7753 19.7593 61.5382 19.7593C60.1376 19.7593 59.4141 18.8957 59.4141 17.1684ZM68.7508 10.7261H69.0775C70.4547 10.7261 70.9215 10.2359 70.9215 9.37228C70.9215 8.53203 70.4547 8.01845 69.0775 8.01845H68.8208C68.0505 8.01845 67.8405 8.11176 67.8405 9.37228C67.8405 10.4694 68.0505 10.7261 68.7508 10.7261Z" fill="#F04A35"/>
<path d="M77.1992 11.6365C77.1992 7.20152 80.2103 3.63025 84.5986 3.63025C87.6329 3.63025 88.3099 4.9375 88.7534 4.9375C88.9168 4.9375 89.0335 4.8674 89.0569 4.704C89.1502 3.95706 89.7103 3.37354 90.9942 3.37354C92.5347 3.37354 93.1416 4.47064 93.1416 5.49766C93.1416 6.05783 93.0716 6.57141 93.0716 7.34171C93.0716 8.08864 93.235 9.06893 93.235 9.60573C93.235 11.053 92.068 11.6365 90.5973 11.6365C89.5703 11.6365 88.4733 11.0996 88.4733 9.72255V9.53578C88.4733 8.46204 87.4462 8.04191 86.1624 8.04191C84.0617 8.04191 82.918 9.30229 82.918 11.3331C82.918 13.4105 84.085 14.6243 85.859 14.6243C88.6134 14.6243 88.9868 13.1071 90.9942 13.1071C92.0446 13.1071 92.8615 13.7607 92.8615 15.1611C92.8615 17.7053 89.5237 19.7594 85.4389 19.7594C80.0002 19.7594 77.1992 16.585 77.1992 11.6365Z" fill="#3696D2"/>
<path d="M94.1211 17.1683C94.1211 15.5577 94.7514 14.764 96.0585 14.764C96.4086 14.764 96.8054 14.8108 97.1556 14.8108C97.6224 14.8108 97.809 14.6474 97.8558 14.2505C97.9491 13.7137 97.9724 13.0834 97.9724 11.893C97.9724 10.7026 97.9025 9.95563 97.8324 9.41883C97.7858 9.06865 97.6224 8.85852 97.1556 8.85852C96.9221 8.85852 96.6186 8.92861 96.3152 8.92861C95.1715 8.92861 94.3546 8.15831 94.3546 6.40773C94.3546 4.86713 95.1481 3.77002 96.7121 3.77016C97.809 3.77016 98.9295 3.88684 100.027 3.88684C101.287 3.88684 102.524 3.77016 103.785 3.77002C105.208 3.77002 105.885 4.63377 105.885 6.33763C105.885 8.04164 105.278 8.92861 104.251 8.92861C103.831 8.92861 103.575 8.85852 103.224 8.85852C102.804 8.85852 102.617 8.97534 102.524 9.25542C102.431 9.62882 102.431 10.3058 102.431 11.2627V13.7137C102.431 14.7874 102.664 14.9041 104.158 14.9041C105.535 14.9041 105.955 14.6006 106.072 13.7137L106.282 12.1265C106.422 11.006 107.029 10.3991 108.5 10.3991C109.9 10.3991 110.6 11.0761 110.6 12.1265C110.6 13.1535 110.554 13.8303 110.554 14.484C110.554 15.3943 110.624 15.9311 110.624 16.7248C110.624 19.0122 109.597 19.7591 107.239 19.7591C105.745 19.7591 102.851 19.5257 100.493 19.5257C98.4159 19.5257 97.8324 19.7591 96.3152 19.7591C94.8447 19.7591 94.1211 18.8955 94.1211 17.1683Z" fill="#3696D2"/>
<path d="M111.254 17.1683C111.254 15.5577 111.884 14.764 113.028 14.764C113.425 14.764 113.798 14.8108 114.312 14.8108C114.802 14.8108 115.035 14.6474 115.105 14.1805C115.175 13.6436 115.199 13.0834 115.199 11.893C115.199 10.7026 115.152 9.95563 115.082 9.48878C115.035 9.06865 114.872 8.85852 114.405 8.85852C114.008 8.85852 113.565 8.92861 113.075 8.92861C112.304 8.92861 111.487 8.15831 111.487 6.40773C111.487 4.86713 112.281 3.77002 113.845 3.77016C114.942 3.77016 115.992 3.88684 117.393 3.88684C118.77 3.88684 119.82 3.77016 120.917 3.77002C122.481 3.77002 123.275 4.86713 123.275 6.40773C123.275 8.15831 122.458 8.92861 121.688 8.92861C121.198 8.92861 120.777 8.85852 120.357 8.85852C119.89 8.85852 119.727 9.06865 119.68 9.48878C119.634 9.95563 119.564 10.7026 119.564 11.893C119.564 13.0834 119.61 13.6436 119.657 14.1805C119.727 14.6474 119.96 14.8108 120.451 14.8108C120.964 14.8108 121.338 14.764 121.734 14.764C122.878 14.764 123.532 15.5577 123.532 17.1683C123.532 18.8955 122.785 19.7591 121.338 19.7591C119.96 19.7591 118.77 19.5257 117.393 19.5257C115.992 19.5257 114.802 19.7591 113.448 19.7591C111.977 19.7591 111.254 18.8955 111.254 17.1683Z" fill="#3696D2"/>
<path d="M123.879 11.6365C123.879 7.20152 126.89 3.63025 131.278 3.63025C134.313 3.63025 134.99 4.9375 135.433 4.9375C135.597 4.9375 135.713 4.8674 135.736 4.704C135.83 3.95706 136.39 3.37354 137.674 3.37354C139.214 3.37354 139.821 4.47064 139.821 5.49766C139.821 6.05783 139.751 6.57141 139.751 7.34171C139.751 8.08864 139.915 9.06893 139.915 9.60573C139.915 11.053 138.748 11.6365 137.277 11.6365C136.25 11.6365 135.153 11.0996 135.153 9.72255V9.53578C135.153 8.46204 134.126 8.04191 132.842 8.04191C130.741 8.04191 129.598 9.30229 129.598 11.3331C129.598 13.4105 130.765 14.6243 132.539 14.6243C135.293 14.6243 135.666 13.1071 137.674 13.1071C138.724 13.1071 139.541 13.7607 139.541 15.1611C139.541 17.7053 136.203 19.7594 132.118 19.7594C126.68 19.7594 123.879 16.585 123.879 11.6365Z" fill="#3696D2"/>
<path d="M140.801 17.1683C140.801 15.5577 141.291 14.764 142.131 14.764C142.528 14.764 142.948 14.8108 143.508 14.8108C143.999 14.8108 144.209 14.6474 144.279 14.1805C144.349 13.6436 144.395 13.0834 144.395 11.893C144.395 10.7026 144.325 9.95563 144.256 9.48878C144.209 9.06865 144.069 8.85852 143.602 8.85852C143.158 8.85852 142.692 8.92861 142.178 8.92861C141.618 8.92861 141.034 8.15831 141.034 6.40773C141.034 4.86713 141.828 3.77002 143.392 3.77016C144.489 3.77016 145.539 3.88684 146.94 3.88684C147.64 3.88684 148.527 3.77016 149.18 3.77002C150.418 3.77002 151.118 4.86713 151.118 6.40773C151.118 8.04164 150.394 8.74184 149.717 8.74184H149.297C148.994 8.74184 148.807 8.92861 148.76 9.30201C148.737 9.51214 148.69 9.9089 148.69 10.1658C148.69 10.4458 148.714 10.5158 149.04 10.3292L150.954 9.18533C152.005 8.55507 152.355 8.32172 152.355 8.01827C152.355 7.55142 151.958 7.36465 151.958 6.12764C151.958 4.49373 152.728 3.77002 154.316 3.77016C155.203 3.77016 156.09 3.84011 156.977 3.84011C157.747 3.84011 158.564 3.77016 159.334 3.77002C160.875 3.77002 161.645 4.56368 161.645 6.10428C161.645 7.48147 161.272 8.6018 159.824 8.6018H159.614C159.311 8.6018 158.937 8.64853 158.447 8.92861L155.062 10.8192L158.634 14.2039C158.867 14.4372 159.147 14.624 159.497 14.624H159.848C161.131 14.624 161.738 15.6744 161.738 16.9115C161.738 18.8721 160.828 19.8058 159.334 19.8058C158.447 19.8058 157.723 19.6424 156.673 19.6424C155.669 19.6424 154.899 19.7591 154.106 19.7591C152.658 19.7591 151.911 18.8489 151.911 17.425C151.911 16.2112 152.098 15.721 152.635 15.2775C152.798 15.1374 152.869 14.9974 152.869 14.8807C152.869 14.6706 152.612 14.3439 152.098 13.8537L151.375 13.1535C151.188 12.9901 151.141 13.0135 150.884 13.1535L148.97 14.1572C148.854 14.2271 148.784 14.2738 148.784 14.484C148.784 14.8108 148.924 14.8807 149.157 14.8807H149.601C150.511 14.8807 151.118 15.651 151.118 17.1683C151.118 18.8955 150.348 19.7591 148.924 19.7591C148.317 19.7591 147.523 19.5257 146.94 19.5257C145.539 19.5257 144.349 19.7591 142.995 19.7591C141.524 19.7591 140.801 18.8955 140.801 17.1683Z" fill="#3696D2"/>
<path d="M162.863 17.1679C162.863 15.5574 163.517 14.7637 164.824 14.7637C165.174 14.7637 165.548 14.8105 165.921 14.8105C166.435 14.8105 166.621 14.6703 166.668 14.1101C166.738 13.5967 166.784 12.4996 166.784 11.6126C166.784 10.6555 166.738 9.72196 166.668 9.13843C166.621 8.6948 166.481 8.55476 166.061 8.55476C165.641 8.55476 165.221 8.60149 164.824 8.60149C163.517 8.60149 162.863 7.80783 162.863 6.19728C162.863 4.47006 163.61 3.60645 165.057 3.60645C166.715 3.60645 167.368 3.8398 170.052 3.8398C171.289 3.8398 172.597 3.60645 174.627 3.60645C178.386 3.60645 179.879 5.10031 179.879 7.50438C179.879 9.39515 179.039 10.212 177.592 10.8189C177.335 10.889 177.312 11.099 177.592 11.1925C179.506 11.776 180.626 12.8963 180.626 14.7637C180.626 17.7281 178.386 19.7588 174.184 19.7588C172.456 19.7588 171.43 19.5254 168.862 19.5254C166.995 19.5254 166.248 19.7588 164.987 19.7588C163.61 19.7588 162.863 18.8952 162.863 17.1679ZM172.223 10.4921H172.55C173.904 10.4921 174.394 10.002 174.394 9.16166C174.394 8.29804 173.904 7.78461 172.55 7.78461H172.27C171.523 7.78461 171.313 7.90128 171.313 9.16166C171.313 10.2588 171.523 10.4921 172.223 10.4921ZM172.363 15.6273H172.783C174.394 15.6273 174.954 15.1371 174.954 14.2735C174.954 13.4333 174.394 12.9197 172.783 12.9197H172.456C171.569 12.9197 171.313 13.0364 171.313 14.2735C171.313 15.3706 171.569 15.6273 172.363 15.6273Z" fill="#FF9F1C"/>
<path d="M180.93 17.4714C180.93 15.7908 181.653 15.1371 182.61 14.9971C183.147 14.9038 183.334 14.7404 183.451 14.3902L185.131 9.4651C185.388 8.74153 185.295 8.46145 185.015 8.46145C184.804 8.46145 184.501 8.60149 183.778 8.60149C182.914 8.60149 182.237 8.06469 182.237 6.19728C182.237 4.68005 182.937 3.60645 184.431 3.60645C185.645 3.60645 187.162 3.8398 188.446 3.8398C190.01 3.8398 191.13 3.60645 192.671 3.60645C194.421 3.60645 195.168 4.16661 195.915 6.01051L199.206 14.2502C199.627 15.3239 200.677 15.4406 200.677 17.448C200.677 18.8019 200.14 19.7588 198.833 19.7588C197.736 19.7588 197.012 19.5955 196.148 19.5955C195.168 19.5955 194.445 19.7588 193.651 19.7588C192.017 19.7588 191.153 19.1053 191.153 17.4714C191.153 16.2109 191.76 15.3473 192.787 15.3473H193.114C193.301 15.3473 193.348 15.2306 193.348 14.8105C193.348 14.717 193.348 14.5536 193.278 14.367C193.207 14.1568 193.114 14.0635 192.951 14.0635C192.601 14.0635 191.597 14.2502 190.617 14.2502C189.73 14.2502 188.516 14.0168 188.282 14.0168C188.142 14.0168 188.072 14.0635 187.932 14.3202C187.839 14.507 187.792 14.6936 187.792 14.7637C187.792 15.0905 187.886 15.3005 188.259 15.3005H188.516C189.45 15.3005 190.173 16.1875 190.173 17.4714C190.173 19.1053 189.589 19.7588 188.212 19.7588C187.396 19.7588 186.415 19.5955 185.622 19.5955C184.641 19.5955 183.848 19.7588 183.124 19.7588C181.98 19.7588 180.93 19.1053 180.93 17.4714ZM189.053 11.1691C189.193 11.1691 189.893 11.0758 190.313 11.0758C190.897 11.0758 191.644 11.1691 192.04 11.1691C192.204 11.1691 192.274 11.099 192.204 10.959L191.434 9.25511C191.177 8.6948 191.037 8.60149 190.57 8.60149H190.383C189.916 8.60149 189.73 8.67158 189.52 9.23175L188.889 10.889C188.819 11.0758 188.889 11.1691 189.053 11.1691Z" fill="#FF9F1C"/>
<path d="M201.051 17.1913C201.051 15.5574 201.681 14.7638 202.801 14.7638C203.128 14.7638 203.338 14.8105 203.665 14.8105C204.155 14.8105 204.389 14.6471 204.459 14.1802C204.482 13.9001 204.552 13.1532 204.552 11.9161C204.552 10.6789 204.482 9.95534 204.435 9.48849C204.389 9.13846 204.295 8.85823 203.758 8.85823C203.478 8.85823 203.175 8.92832 202.895 8.92832C201.984 8.92832 201.121 8.04135 201.121 6.31398C201.121 4.77353 201.751 3.72314 203.362 3.72314C203.875 3.72314 204.622 3.83982 205.276 3.83982C206.209 3.83982 206.793 3.72314 207.867 3.72314C208.777 3.72314 209.244 4.07318 209.734 4.84348L214.566 12.2662V9.41854C214.566 8.74155 214.309 8.60151 213.772 8.48484C212.932 8.32143 212.371 7.59786 212.371 6.2674C212.371 4.51666 213.189 3.72314 214.519 3.72314C214.939 3.72314 215.733 3.83982 216.713 3.83982C217.624 3.83982 218.627 3.72314 219.047 3.72314C220.471 3.72314 221.335 4.3534 221.335 6.61743C221.335 7.99462 220.728 8.92832 219.958 8.92832C219.724 8.92832 219.514 8.85823 219.281 8.85823C218.954 8.85823 218.93 8.99827 218.93 9.67526V15.3006C218.93 16.0241 219.071 16.7245 219.071 17.6814C219.071 19.0352 218.16 19.7588 216.643 19.7588C215.056 19.7588 214.426 19.4088 213.375 17.8214L208.917 11.1224V13.9467C208.917 14.4837 209.104 14.6703 209.734 14.717C211.041 14.8105 211.531 15.7207 211.531 17.1212C211.531 18.8718 210.784 19.7588 209.291 19.7588C208.614 19.7588 207.47 19.5255 206.419 19.5255C205.066 19.5255 204.249 19.7588 203.315 19.7588C201.774 19.7588 201.051 18.9186 201.051 17.1913Z" fill="#FF9F1C"/>
<path d="M221.566 11.7528C221.566 7.0145 225.044 3.62986 229.549 3.62986C230.833 3.62986 231.72 3.79327 232.49 4.1668C233.261 4.5402 233.377 4.75033 233.634 4.75033C233.751 4.75033 233.844 4.70361 233.891 4.51684C234.031 3.86336 234.498 3.51318 235.595 3.51318C237.042 3.51318 237.509 4.1668 237.509 5.00705C237.509 5.66067 237.439 6.26757 237.439 6.89783C237.439 7.34131 237.532 7.7848 237.532 8.41492C237.532 9.4653 236.482 10.1889 235.011 10.1889C233.517 10.1889 232.864 9.83884 232.771 8.71836C232.747 8.34497 232.584 8.11147 232.21 7.99479C231.907 7.90148 231.3 7.83139 230.927 7.83139C228.312 7.83139 227.262 9.67543 227.262 11.7295C227.262 13.8069 228.522 15.4408 231.043 15.4408C232.35 15.4408 232.981 14.9973 232.981 14.6705C232.981 14.4838 232.91 14.3672 232.677 14.3672C232.537 14.3672 232.467 14.3904 232.257 14.3904C231.603 14.3904 231.09 13.7603 231.09 12.6632C231.09 11.426 231.72 10.7725 232.934 10.7725C233.681 10.7725 234.474 10.8659 235.291 10.8659C236.342 10.8659 236.879 10.7725 237.579 10.7725C238.443 10.7725 239.166 11.3327 239.166 12.5931C239.166 13.6435 238.839 14.2504 237.789 14.3904C237.532 14.4138 237.439 14.5304 237.439 14.7873C237.439 15.4875 237.579 16.7247 237.579 17.5415C237.579 19.2222 236.785 19.759 235.361 19.759C234.218 19.759 233.727 19.4555 233.424 18.662C233.377 18.522 233.284 18.4519 233.167 18.4519C233.051 18.4519 233.004 18.4986 232.817 18.662C232.21 19.1988 231.393 19.759 229.199 19.759C224.671 19.759 221.566 16.5846 221.566 11.7528Z" fill="#FF9F1C"/>
</g>
<defs>
<clipPath id="clip0_2115_269">
<rect width="242.166" height="23.0148" fill="white"/>
</clipPath>
</defs>
</svg>
