<svg width="242" height="24" viewBox="0 0 242 24" fill="none" xmlns="http://www.w3.org/2000/svg">
<g clip-path="url(#clip0_2115_21)">
<path d="M242 13.0032C242 11.4251 241.374 10.0958 240.346 9.25065C240.359 9.11084 240.366 8.96882 240.366 8.825C240.366 8.34243 240.328 7.94419 240.3 7.6534C240.287 7.52072 240.273 7.37031 240.273 7.30791C240.273 7.07748 240.287 6.81802 240.303 6.54331C240.322 6.20838 240.343 5.82873 240.343 5.41714C240.343 3.2213 238.849 1.00563 235.511 1.00563C234.388 1.00563 233.538 1.25608 232.894 1.62376C231.916 1.27955 230.823 1.1223 229.466 1.1223C227.038 1.1223 224.845 1.84943 223.072 3.10779C222.99 2.99799 222.906 2.8892 222.815 2.78693C221.883 1.74439 220.587 1.21576 218.962 1.21576C218.687 1.21576 218.385 1.23754 218.001 1.26512C217.584 1.29511 217.065 1.33244 216.628 1.33244C216.154 1.33244 215.718 1.29698 215.333 1.26569C215.003 1.23889 214.719 1.21576 214.434 1.21576C213.225 1.21576 212.011 1.60408 211.074 2.42445C210.38 1.80199 209.329 1.21576 207.781 1.21576C207.119 1.21576 206.619 1.25257 206.178 1.28503C205.818 1.31151 205.534 1.33244 205.191 1.33244C204.972 1.33244 204.67 1.30581 204.377 1.28004C204.018 1.24845 203.646 1.21576 203.277 1.21576C200.801 1.21576 198.981 2.64253 198.356 4.90709C197.524 3.04406 196.072 1.09908 192.587 1.09908C191.692 1.09908 190.952 1.16369 190.237 1.22616C189.611 1.28081 189.02 1.33244 188.362 1.33244C187.834 1.33244 187.208 1.27958 186.545 1.22365C185.819 1.16241 185.068 1.09908 184.347 1.09908C182.736 1.09908 181.39 1.75242 180.482 2.85271C180.455 2.83038 180.428 2.80645 180.401 2.78506C178.982 1.65056 177.066 1.09908 174.544 1.09908C173.286 1.09908 172.272 1.18091 171.457 1.24667C170.887 1.29269 170.394 1.33244 169.969 1.33244C168.589 1.33244 167.823 1.26776 167.083 1.20522C166.465 1.15304 165.826 1.09908 164.974 1.09908C163.822 1.09908 162.823 1.39788 162.02 1.94291C161.241 1.50613 160.308 1.26234 159.256 1.26234H159.256C158.807 1.26243 158.371 1.28165 157.95 1.30022C157.575 1.31678 157.22 1.33244 156.899 1.33244C156.513 1.33244 156.11 1.31655 155.683 1.29972C155.219 1.28142 154.739 1.26249 154.238 1.26249C153.173 1.2624 152.244 1.4746 151.463 1.89511C150.776 1.48786 149.976 1.26234 149.103 1.26234C148.673 1.26243 148.231 1.29543 147.803 1.32734C147.462 1.35281 147.109 1.37916 146.862 1.37916C146.193 1.37916 145.596 1.34871 145.018 1.31928C144.47 1.29135 143.903 1.26249 143.314 1.26249C142.378 1.2624 141.511 1.4817 140.755 1.8855C139.906 1.24035 138.823 0.865584 137.596 0.865584C136.388 0.865584 135.409 1.18139 134.655 1.68489C133.802 1.37131 132.672 1.1223 131.2 1.1223C128.824 1.1223 126.685 1.88918 124.979 3.21295C124.044 1.9907 122.59 1.26234 120.836 1.26234H120.836C120.245 1.26241 119.677 1.29148 119.128 1.3196C118.557 1.34887 117.965 1.37916 117.312 1.37916C116.643 1.37916 116.046 1.34871 115.468 1.31928C114.92 1.29135 114.353 1.26249 113.764 1.26249C112.155 1.26234 110.736 1.89349 109.769 3.03968C109.192 3.72316 108.808 4.55812 108.621 5.49332C108.119 2.40118 105.761 1.26234 103.704 1.26234H103.704C103.006 1.26241 102.337 1.29369 101.69 1.32394C101.082 1.35234 100.509 1.37916 99.9462 1.37916C99.4744 1.37916 98.973 1.35279 98.4421 1.32485C97.8594 1.29418 97.2568 1.26249 96.6317 1.26249C95.6962 1.2624 94.8286 1.48168 94.0731 1.88548C93.2242 1.24035 92.1409 0.865584 90.9136 0.865584C89.7058 0.865584 88.7268 1.18142 87.9723 1.68485C87.1194 1.37131 85.9902 1.1223 84.518 1.1223C81.778 1.1223 79.3526 2.14227 77.5426 3.86064C77.3895 3.67836 77.227 3.50295 77.0535 3.33549C75.5162 1.85152 73.2844 1.09908 70.4201 1.09908C69.5791 1.09908 68.7867 1.17021 68.0874 1.23296C67.5175 1.28412 66.9791 1.33244 66.5221 1.33244C65.1266 1.33244 64.3632 1.26761 63.625 1.20495C63.0119 1.1529 62.3779 1.09908 61.5269 1.09908C59.0083 1.09908 57.213 2.52179 56.6244 4.8446C55.7873 3.00073 54.3295 1.09908 50.8837 1.09908C49.9892 1.09908 49.2493 1.16369 48.5338 1.22616C47.9079 1.28081 47.3166 1.33244 46.6588 1.33244C46.1309 1.33244 45.5046 1.27958 44.8415 1.22365C44.1158 1.16241 43.3654 1.09908 42.6441 1.09908C41.569 1.09908 40.6129 1.39243 39.8239 1.91183C39.0465 1.45259 38.1182 1.21576 37.0426 1.21576C36.7678 1.21576 36.4651 1.23754 36.0817 1.2651C35.6647 1.29511 35.1457 1.33244 34.7085 1.33244C34.2343 1.33244 33.7981 1.29698 33.4132 1.26569C33.0836 1.23889 32.7989 1.21576 32.5142 1.21576C31.3052 1.21576 30.091 1.6041 29.1546 2.42447C28.4609 1.80201 27.4092 1.21576 25.8619 1.21576C25.199 1.21576 24.6992 1.25257 24.2582 1.28503C23.8984 1.31151 23.6142 1.33244 23.2709 1.33244C23.0527 1.33244 22.75 1.30581 22.4574 1.28006C22.098 1.24845 21.7264 1.21576 21.3569 1.21576C20.569 1.21576 19.8483 1.36189 19.21 1.63179C18.3698 0.911635 17.229 0.492188 15.8956 0.492188C14.6028 0.492188 13.67 0.852833 12.9973 1.36006C12.2829 1.24272 11.3181 1.1223 10.0135 1.1223C6.86167 1.1223 4.49254 1.78266 2.77066 3.1411C1.01915 4.52292 0.0933134 6.52878 0.0933134 8.94182C0.0933134 9.94795 0.272675 11.1357 0.879319 12.2752C0.285283 13.0814 0 14.0495 0 14.9873C0 15.4262 0.0244681 15.8282 0.044128 16.1513C0.0574127 16.3696 0.0699494 16.5758 0.0699494 16.7146C0.0699494 17.0711 0.0533525 17.3798 0.0357939 17.7065C0.0181997 18.0338 0 18.3722 0 18.7453C0 21.6379 1.80487 23.507 4.59814 23.507C5.92754 23.507 6.94579 23.1687 7.69195 22.6608C8.62743 22.876 9.89981 23.0867 11.4374 23.0867C13.8803 23.0867 15.9381 22.5939 17.5699 21.623C18.4705 22.5585 19.7534 23.0867 21.3102 23.0867C21.9086 23.0867 22.4219 23.025 22.9182 22.9654C23.3973 22.9078 23.8499 22.8534 24.4148 22.8534C24.8267 22.8534 25.3281 22.9122 25.8129 22.9692C26.3275 23.0296 26.8135 23.0867 27.2857 23.0867C28.6746 23.0867 29.8457 22.6584 30.7192 21.8875C31.7873 22.7372 33.005 23.0867 34.6384 23.0867C36.0128 23.0867 37.206 22.6947 38.1144 22.0084C38.9759 22.6906 40.0822 23.0867 41.337 23.0867C41.8166 23.0867 42.2587 23.0426 42.6863 22.9999C43.0803 22.9606 43.4525 22.9234 43.8345 22.9234C44.0953 22.9234 44.4599 22.9568 44.8458 22.9921C45.331 23.0364 45.8809 23.0867 46.4255 23.0867C47.3048 23.0867 48.2068 22.8965 48.9921 22.4592C49.7911 22.8681 50.7584 23.0867 51.8642 23.0867C52.3879 23.0867 52.8589 23.0388 53.2744 22.9966C53.6603 22.9573 53.9935 22.9234 54.3617 22.9234C54.6277 22.9234 54.907 22.9503 55.2608 22.9844C55.7347 23.03 56.3246 23.0867 57.046 23.0867C57.7874 23.0867 58.5309 22.9284 59.2027 22.6004C59.9262 22.936 60.7112 23.0867 61.4569 23.0867C62.1618 23.0867 62.7255 23.0287 63.2705 22.9726C63.8661 22.9113 64.4287 22.8534 65.3083 22.8534C66.3571 22.8534 67.05 22.9155 67.7201 22.9755C68.3298 23.0302 68.9603 23.0867 69.7432 23.0867C72.2527 23.0867 74.7849 21.3834 74.7849 17.5782C74.7849 17.2252 74.7579 16.8986 74.7179 16.5856H74.9757C75.4646 17.8934 76.1778 19.0463 77.1123 20.0026C79.0841 22.0202 81.9355 23.0867 85.3583 23.0867C87.871 23.0867 90.2779 22.4542 92.1356 21.3057C92.1677 21.2859 92.1975 21.2646 92.2292 21.2445C93.1203 22.4153 94.5065 23.0867 96.2348 23.0867C97.0779 23.0867 97.6799 23.0271 98.2622 22.9696C98.8662 22.9098 99.4368 22.8534 100.413 22.8534C101.654 22.8534 103.099 22.924 104.373 22.9863C105.474 23.0402 106.425 23.0867 107.159 23.0867C108.63 23.0867 109.764 22.8164 110.638 22.3804C111.4 22.8353 112.319 23.0867 113.367 23.0867C114.171 23.0867 114.882 23.0221 115.57 22.9595C116.171 22.9049 116.738 22.8534 117.312 22.8534C117.868 22.8534 118.428 22.9042 119.02 22.958C119.716 23.0213 120.436 23.0867 121.257 23.0867C122.993 23.0867 124.385 22.4096 125.276 21.2283C127.096 22.4478 129.397 23.0867 132.04 23.0867C134.553 23.0867 136.96 22.4542 138.818 21.3057C138.85 21.2859 138.88 21.2645 138.911 21.2444C139.802 22.4153 141.189 23.0867 142.917 23.0867C143.72 23.0867 144.432 23.0221 145.12 22.9595C145.716 22.9054 146.279 22.8542 146.849 22.8534C146.942 22.8592 147.188 22.9005 147.351 22.928C147.772 22.9987 148.296 23.0867 148.846 23.0867C149.737 23.0867 150.632 22.8776 151.418 22.4422C152.164 22.8578 153.048 23.0867 154.028 23.0867C154.504 23.0867 154.941 23.056 155.364 23.0263C155.776 22.9974 156.166 22.97 156.595 22.97C157.002 22.97 157.353 23.004 157.759 23.0434C158.196 23.0856 158.691 23.1334 159.256 23.1334C160.272 23.1334 161.289 22.8668 162.159 22.315C162.983 22.8354 163.944 23.0867 164.904 23.0867C165.621 23.0867 166.192 23.0284 166.743 22.972C167.339 22.911 167.903 22.8534 168.779 22.8534C170.081 22.8534 170.94 22.9173 171.771 22.9792C172.513 23.0345 173.214 23.0867 174.101 23.0867C176.219 23.0867 178.084 22.6451 179.587 21.8115C180.477 22.6138 181.669 23.0867 183.04 23.0867C183.52 23.0867 183.962 23.0426 184.389 22.9999C184.783 22.9606 185.155 22.9234 185.538 22.9234C185.798 22.9234 186.163 22.9568 186.549 22.9921C187.034 23.0364 187.584 23.0867 188.128 23.0867C189.008 23.0867 189.91 22.8965 190.695 22.4591C191.494 22.8681 192.461 23.0867 193.567 23.0867C194.091 23.0867 194.562 23.0388 194.977 22.9966C195.363 22.9573 195.696 22.9234 196.064 22.9234C196.331 22.9234 196.61 22.9503 196.964 22.9844C197.438 23.03 198.027 23.0867 198.749 23.0867C199.486 23.0867 200.225 22.9299 200.893 22.606C201.575 22.9159 202.358 23.0867 203.23 23.0867C203.828 23.0867 204.342 23.025 204.838 22.9653C205.317 22.9078 205.77 22.8534 206.334 22.8534C206.746 22.8534 207.248 22.9122 207.733 22.9692C208.247 23.0296 208.733 23.0867 209.206 23.0867C210.594 23.0867 211.765 22.6584 212.639 21.8875C213.707 22.7371 214.925 23.0867 216.558 23.0867C218.949 23.0867 220.79 21.8989 221.537 20.039C223.447 22.0042 226.135 23.0867 229.115 23.0867C230.646 23.0867 231.776 22.8567 232.652 22.5139C233.377 22.895 234.253 23.0867 235.278 23.0867C238.445 23.0867 240.413 21.1191 240.413 17.9516C240.413 17.5829 240.392 17.184 240.367 16.7827C241.415 15.9617 242 14.6538 242 13.0032Z" fill="white"/>
<path d="M2.91797 18.7456C2.91797 18.1154 2.98792 17.5318 2.98792 16.7149C2.98792 16.2247 2.91797 15.6412 2.91797 14.9876C2.91797 14.0306 3.54808 13.2837 5.13541 13.2837C6.30247 13.2837 7.07277 13.5638 7.16608 14.5207L7.18944 14.7542C7.28276 15.7111 8.42659 16.0613 10.2473 16.0613C11.9745 16.0613 12.5113 15.6178 12.5113 14.9642C12.5113 14.4274 12.0912 14.1473 11.1808 14.0306C6.886 13.4004 3.01128 12.7701 3.01128 8.94215C3.01128 6.11767 4.85533 4.04027 10.0138 4.04027C12.2779 4.04027 13.2816 4.46054 14.0285 4.46054C14.1919 4.46054 14.2854 4.36708 14.3553 4.22704C14.5655 3.76019 14.8689 3.41016 15.8959 3.41016C17.4598 3.41016 17.8099 4.34372 17.8099 5.09065C17.8099 5.6276 17.7866 6.09445 17.7866 6.77129C17.7866 7.21478 17.8567 7.75172 17.8567 8.03181C17.8567 9.1755 17.1331 9.99253 15.3358 9.99253C14.122 9.99253 13.0482 9.59562 13.0482 8.8021V8.6387C13.0482 7.98508 12.4647 7.51823 10.7607 7.51823C9.22011 7.51823 8.65995 7.91499 8.65995 8.45193C8.65995 8.91878 8.94003 9.15214 9.82701 9.29218C17.1563 10.6226 18.4168 11.6264 18.4168 14.8242C18.4168 18.4188 15.6159 20.1694 11.4377 20.1694C8.7534 20.1694 7.07277 19.3992 6.72259 19.3992C6.55919 19.3992 6.48924 19.4925 6.41914 19.7726C6.30247 20.2161 5.71894 20.5897 4.59846 20.5897C3.36146 20.5897 2.91797 19.936 2.91797 18.7456Z" fill="#F04A35"/>
<path d="M19.043 17.602C19.043 15.9681 19.6731 15.1744 20.7936 15.1744C21.1204 15.1744 21.3304 15.2211 21.6572 15.2211C22.1474 15.2211 22.3807 15.0577 22.4508 14.5909C22.4742 14.3108 22.5441 13.5639 22.5441 12.3267C22.5441 11.0896 22.4742 10.366 22.4275 9.89913C22.3807 9.5491 22.2874 9.26888 21.7505 9.26888C21.4704 9.26888 21.167 9.33897 20.8869 9.33897C19.9765 9.33897 19.1129 8.45199 19.1129 6.72463C19.1129 5.18417 19.7432 4.13379 21.3537 4.13379C21.8673 4.13379 22.6142 4.25047 23.2677 4.25047C24.2014 4.25047 24.7849 4.13379 25.8587 4.13379C26.769 4.13379 27.2359 4.48382 27.726 5.25412L32.5577 12.6769V9.82918C32.5577 9.1522 32.301 9.01216 31.7641 8.89548C30.9238 8.73207 30.3637 8.0085 30.3637 6.67804C30.3637 4.92731 31.1806 4.13379 32.511 4.13379C32.9313 4.13379 33.7248 4.25047 34.7052 4.25047C35.6156 4.25047 36.6192 4.13379 37.0394 4.13379C38.4633 4.13379 39.3269 4.76405 39.3269 7.02807C39.3269 8.40526 38.72 9.33897 37.9497 9.33897C37.7163 9.33897 37.5062 9.26888 37.2729 9.26888C36.946 9.26888 36.9227 9.40892 36.9227 10.0859V15.7112C36.9227 16.4348 37.0627 17.1351 37.0627 18.0921C37.0627 19.4459 36.1524 20.1695 34.6351 20.1695C33.048 20.1695 32.4177 19.8194 31.3673 18.2321L26.9091 11.533V14.3574C26.9091 14.8943 27.0958 15.0809 27.726 15.1277C29.0332 15.2211 29.5233 16.1313 29.5233 17.5319C29.5233 19.2825 28.7763 20.1695 27.2825 20.1695C26.6056 20.1695 25.4619 19.9361 24.4116 19.9361C23.0577 19.9361 22.2407 20.1695 21.307 20.1695C19.7665 20.1695 19.043 19.3292 19.043 17.602Z" fill="#F04A35"/>
<path d="M39.1445 17.8815C39.1445 16.2009 39.8681 15.5473 40.8252 15.4072C41.362 15.3139 41.5487 15.1505 41.6654 14.8004L43.3461 9.87526C43.6028 9.15169 43.5095 8.87161 43.2292 8.87161C43.0192 8.87161 42.7158 9.01165 41.9922 9.01165C41.1285 9.01165 40.4516 8.47485 40.4516 6.60744C40.4516 5.0902 41.1518 4.0166 42.6457 4.0166C43.8595 4.0166 45.3767 4.24996 46.6605 4.24996C48.2244 4.24996 49.3448 4.0166 50.8854 4.0166C52.6359 4.0166 53.3829 4.57677 54.1298 6.42067L57.421 14.6603C57.8413 15.7341 58.8916 15.8507 58.8916 17.8582C58.8916 19.212 58.3547 20.1689 57.0476 20.1689C55.9505 20.1689 55.2269 20.0057 54.3633 20.0057C53.3829 20.0057 52.6593 20.1689 51.8658 20.1689C50.2319 20.1689 49.3681 19.5155 49.3681 17.8815C49.3681 16.621 49.975 15.7574 51.002 15.7574H51.3288C51.5156 15.7574 51.5623 15.6407 51.5623 15.2206C51.5623 15.1272 51.5623 14.9638 51.4922 14.7771C51.4223 14.567 51.3288 14.4737 51.1654 14.4737C50.8154 14.4737 49.8116 14.6603 48.8313 14.6603C47.9443 14.6603 46.7306 14.427 46.4972 14.427C46.357 14.427 46.2871 14.4737 46.147 14.7304C46.0536 14.9172 46.007 15.1038 46.007 15.1739C46.007 15.5007 46.1003 15.7107 46.4738 15.7107H46.7306C47.6643 15.7107 48.3878 16.5977 48.3878 17.8815C48.3878 19.5155 47.8043 20.1689 46.4271 20.1689C45.6101 20.1689 44.6298 20.0057 43.8361 20.0057C42.8558 20.0057 42.0622 20.1689 41.3386 20.1689C40.1949 20.1689 39.1445 19.5155 39.1445 17.8815ZM47.2674 11.5793C47.4074 11.5793 48.1077 11.4859 48.5279 11.4859C49.1114 11.4859 49.8583 11.5793 50.2551 11.5793C50.4185 11.5793 50.4886 11.5092 50.4185 11.3691L49.6482 9.66527C49.3915 9.10496 49.2514 9.01165 48.7846 9.01165H48.5978C48.1311 9.01165 47.9443 9.08174 47.7342 9.6419L47.104 11.2992C47.034 11.4859 47.104 11.5793 47.2674 11.5793Z" fill="#F04A35"/>
<path d="M59.332 17.5781C59.332 15.9676 59.9623 15.1739 61.2694 15.1739C61.6196 15.1739 62.0163 15.2206 62.3665 15.2206C62.8799 15.2206 63.0667 15.0804 63.1368 14.5203C63.2067 14.0068 63.2535 12.9097 63.2535 12.0227C63.2535 11.0657 63.2067 10.1321 63.1368 9.54859C63.0901 9.10496 62.9267 8.96492 62.5065 8.96492C62.1098 8.96492 61.6663 9.01165 61.2694 9.01165C59.9623 9.01165 59.332 8.21798 59.332 6.60744C59.332 4.88021 60.0556 4.0166 61.5261 4.0166C63.1834 4.0166 63.8136 4.24996 66.5213 4.24996C67.7351 4.24996 69.0422 4.0166 70.4194 4.0166C74.8309 4.0166 76.3248 6.11722 76.3248 9.05837C76.3248 12.5829 73.9206 14.1235 70.7695 14.1235C69.6491 14.1235 68.5987 13.9835 68.1552 13.9835C67.6184 13.9835 67.4784 14.1702 67.4784 14.5904C67.4784 15.1038 67.7351 15.2206 68.2485 15.2206C68.7855 15.2206 69.3924 15.1739 69.9292 15.1739C71.213 15.1739 71.8665 15.9676 71.8665 17.5781C71.8665 19.3053 71.1196 20.1689 69.7424 20.1689C68.2952 20.1689 67.455 19.9356 65.3075 19.9356C63.4402 19.9356 62.6933 20.1689 61.4562 20.1689C60.0556 20.1689 59.332 19.3053 59.332 17.5781ZM68.6688 11.1358H68.9955C70.3726 11.1358 70.8395 10.6456 70.8395 9.78195C70.8395 8.9417 70.3726 8.42812 68.9955 8.42812H68.7387C67.9684 8.42812 67.7584 8.52143 67.7584 9.78195C67.7584 10.8791 67.9684 11.1358 68.6688 11.1358Z" fill="#F04A35"/>
<path d="M77.1172 12.0462C77.1172 7.61119 80.1283 4.03992 84.5166 4.03992C87.5509 4.03992 88.2279 5.34716 88.6714 5.34716C88.8348 5.34716 88.9515 5.27707 88.9748 5.11367C89.0681 4.36673 89.6283 3.7832 90.9122 3.7832C92.4526 3.7832 93.0595 4.88031 93.0595 5.90733C93.0595 6.4675 92.9896 6.98108 92.9896 7.75137C92.9896 8.49831 93.153 9.4786 93.153 10.0154C93.153 11.4627 91.9859 12.0462 90.5153 12.0462C89.4883 12.0462 88.3913 11.5093 88.3913 10.1322V9.94545C88.3913 8.87171 87.3641 8.45158 86.0804 8.45158C83.9796 8.45158 82.8359 9.71195 82.8359 11.7428C82.8359 13.8202 84.003 15.034 85.777 15.034C88.5313 15.034 88.9047 13.5167 90.9122 13.5167C91.9626 13.5167 92.7795 14.1703 92.7795 15.5708C92.7795 18.115 89.4417 20.169 85.3568 20.169C79.9182 20.169 77.1172 16.9947 77.1172 12.0462Z" fill="#3696D2"/>
<path d="M94.0391 17.5779C94.0391 15.9674 94.6693 15.1737 95.9764 15.1737C96.3266 15.1737 96.7234 15.2204 97.0735 15.2204C97.5404 15.2204 97.727 15.057 97.7737 14.6601C97.867 14.1233 97.8904 13.4931 97.8904 12.3027C97.8904 11.1122 97.8205 10.3653 97.7504 9.8285C97.7038 9.47832 97.5404 9.26819 97.0735 9.26819C96.84 9.26819 96.5366 9.33828 96.2331 9.33828C95.0894 9.33828 94.2726 8.56798 94.2726 6.81739C94.2726 5.2768 95.0661 4.17969 96.63 4.17983C97.727 4.17983 98.8475 4.29651 99.9446 4.29651C101.205 4.29651 102.442 4.17983 103.702 4.17969C105.126 4.17969 105.803 5.04344 105.803 6.7473C105.803 8.4513 105.196 9.33828 104.169 9.33828C103.749 9.33828 103.492 9.26819 103.142 9.26819C102.722 9.26819 102.535 9.38501 102.442 9.66509C102.349 10.0385 102.349 10.7155 102.349 11.6724V14.1233C102.349 15.1971 102.582 15.3138 104.076 15.3138C105.453 15.3138 105.873 15.0103 105.99 14.1233L106.2 12.5362C106.34 11.4157 106.947 10.8088 108.418 10.8088C109.818 10.8088 110.518 11.4858 110.518 12.5362C110.518 13.5632 110.472 14.24 110.472 14.8936C110.472 15.804 110.542 16.3408 110.542 17.1344C110.542 19.4218 109.515 20.1688 107.157 20.1688C105.663 20.1688 102.769 19.9354 100.411 19.9354C98.3339 19.9354 97.7504 20.1688 96.2331 20.1688C94.7626 20.1688 94.0391 19.3052 94.0391 17.5779Z" fill="#3696D2"/>
<path d="M111.172 17.5779C111.172 15.9674 111.802 15.1737 112.946 15.1737C113.343 15.1737 113.716 15.2204 114.23 15.2204C114.72 15.2204 114.953 15.057 115.023 14.5902C115.093 14.0532 115.117 13.4931 115.117 12.3027C115.117 11.1122 115.07 10.3653 115 9.89845C114.953 9.47832 114.79 9.26819 114.323 9.26819C113.926 9.26819 113.483 9.33828 112.993 9.33828C112.222 9.33828 111.405 8.56798 111.405 6.81739C111.405 5.2768 112.199 4.17969 113.763 4.17983C114.86 4.17983 115.91 4.29651 117.311 4.29651C118.688 4.29651 119.738 4.17983 120.835 4.17969C122.399 4.17969 123.193 5.2768 123.193 6.81739C123.193 8.56798 122.376 9.33828 121.606 9.33828C121.116 9.33828 120.695 9.26819 120.275 9.26819C119.808 9.26819 119.645 9.47832 119.598 9.89845C119.552 10.3653 119.481 11.1122 119.481 12.3027C119.481 13.4931 119.528 14.0532 119.575 14.5902C119.645 15.057 119.878 15.2204 120.369 15.2204C120.882 15.2204 121.256 15.1737 121.652 15.1737C122.796 15.1737 123.45 15.9674 123.45 17.5779C123.45 19.3052 122.703 20.1688 121.256 20.1688C119.878 20.1688 118.688 19.9354 117.311 19.9354C115.91 19.9354 114.72 20.1688 113.366 20.1688C111.895 20.1688 111.172 19.3052 111.172 17.5779Z" fill="#3696D2"/>
<path d="M123.797 12.0462C123.797 7.61119 126.808 4.03992 131.196 4.03992C134.231 4.03992 134.908 5.34716 135.351 5.34716C135.514 5.34716 135.631 5.27707 135.654 5.11367C135.748 4.36673 136.308 3.7832 137.592 3.7832C139.132 3.7832 139.739 4.88031 139.739 5.90733C139.739 6.4675 139.669 6.98108 139.669 7.75137C139.669 8.49831 139.833 9.4786 139.833 10.0154C139.833 11.4627 138.665 12.0462 137.195 12.0462C136.168 12.0462 135.071 11.5093 135.071 10.1322V9.94545C135.071 8.87171 134.044 8.45158 132.76 8.45158C130.659 8.45158 129.516 9.71195 129.516 11.7428C129.516 13.8202 130.683 15.034 132.457 15.034C135.211 15.034 135.584 13.5167 137.592 13.5167C138.642 13.5167 139.459 14.1703 139.459 15.5708C139.459 18.115 136.121 20.169 132.036 20.169C126.598 20.169 123.797 16.9947 123.797 12.0462Z" fill="#3696D2"/>
<path d="M140.719 17.5779C140.719 15.9674 141.209 15.1737 142.049 15.1737C142.446 15.1737 142.866 15.2204 143.426 15.2204C143.916 15.2204 144.127 15.057 144.197 14.5902C144.267 14.0532 144.313 13.4931 144.313 12.3027C144.313 11.1122 144.243 10.3653 144.173 9.89845C144.127 9.47832 143.987 9.26819 143.52 9.26819C143.076 9.26819 142.61 9.33828 142.096 9.33828C141.536 9.33828 140.952 8.56798 140.952 6.81739C140.952 5.2768 141.746 4.17969 143.31 4.17983C144.407 4.17983 145.457 4.29651 146.858 4.29651C147.558 4.29651 148.445 4.17983 149.098 4.17969C150.336 4.17969 151.036 5.2768 151.036 6.81739C151.036 8.4513 150.312 9.15151 149.635 9.15151H149.215C148.912 9.15151 148.725 9.33828 148.678 9.71168C148.655 9.92181 148.608 10.3186 148.608 10.5754C148.608 10.8555 148.632 10.9255 148.958 10.7388L150.872 9.595C151.923 8.96474 152.273 8.73139 152.273 8.42794C152.273 7.96109 151.876 7.77432 151.876 6.53731C151.876 4.9034 152.646 4.17969 154.234 4.17983C155.121 4.17983 156.008 4.24978 156.895 4.24978C157.665 4.24978 158.482 4.17983 159.252 4.17969C160.793 4.17969 161.563 4.97335 161.563 6.51395C161.563 7.89114 161.19 9.01147 159.742 9.01147H159.532C159.229 9.01147 158.855 9.0582 158.365 9.33828L154.98 11.2289L158.552 14.6136C158.785 14.8469 159.065 15.0337 159.415 15.0337H159.766C161.049 15.0337 161.656 16.0841 161.656 17.3212C161.656 19.2818 160.746 20.2155 159.252 20.2155C158.365 20.2155 157.641 20.0521 156.591 20.0521C155.587 20.0521 154.817 20.1688 154.024 20.1688C152.576 20.1688 151.829 19.2586 151.829 17.8346C151.829 16.6209 152.016 16.1306 152.553 15.6872C152.716 15.5471 152.787 15.4071 152.787 15.2904C152.787 15.0803 152.53 14.7536 152.016 14.2634L151.293 13.5632C151.106 13.3998 151.059 13.4231 150.802 13.5632L148.888 14.5668C148.772 14.6368 148.702 14.6835 148.702 14.8936C148.702 15.2204 148.842 15.2904 149.075 15.2904H149.519C150.429 15.2904 151.036 16.0607 151.036 17.5779C151.036 19.3052 150.265 20.1688 148.842 20.1688C148.235 20.1688 147.441 19.9354 146.858 19.9354C145.457 19.9354 144.267 20.1688 142.913 20.1688C141.442 20.1688 140.719 19.3052 140.719 17.5779Z" fill="#3696D2"/>
<path d="M162.781 17.5791C162.781 15.9685 163.435 15.1749 164.742 15.1749C165.092 15.1749 165.466 15.2216 165.839 15.2216C166.353 15.2216 166.539 15.0814 166.586 14.5212C166.656 14.0078 166.702 12.9107 166.702 12.0237C166.702 11.0667 166.656 10.1331 166.586 9.54957C166.539 9.10594 166.399 8.9659 165.979 8.9659C165.559 8.9659 165.139 9.01262 164.742 9.01262C163.435 9.01262 162.781 8.21896 162.781 6.60841C162.781 4.88119 163.528 4.01758 164.975 4.01758C166.633 4.01758 167.286 4.25093 169.97 4.25093C171.207 4.25093 172.515 4.01758 174.545 4.01758C178.303 4.01758 179.797 5.51145 179.797 7.91551C179.797 9.80629 178.957 10.6232 177.51 11.2301C177.253 11.3002 177.23 11.5101 177.51 11.6036C179.424 12.1871 180.544 13.3075 180.544 15.1749C180.544 18.1392 178.303 20.1699 174.102 20.1699C172.374 20.1699 171.348 19.9366 168.78 19.9366C166.913 19.9366 166.166 20.1699 164.905 20.1699C163.528 20.1699 162.781 19.3063 162.781 17.5791ZM172.141 10.9033H172.468C173.822 10.9033 174.312 10.4132 174.312 9.57279C174.312 8.70918 173.822 8.19574 172.468 8.19574H172.188C171.441 8.19574 171.231 8.31242 171.231 9.57279C171.231 10.6699 171.441 10.9033 172.141 10.9033ZM172.281 16.0385H172.701C174.312 16.0385 174.872 15.5483 174.872 14.6847C174.872 13.8444 174.312 13.3308 172.701 13.3308H172.374C171.487 13.3308 171.231 13.4475 171.231 14.6847C171.231 15.7818 171.487 16.0385 172.281 16.0385Z" fill="#FF9F1C"/>
<path d="M180.848 17.8825C180.848 16.2019 181.571 15.5483 182.528 15.4082C183.065 15.3149 183.252 15.1515 183.369 14.8013L185.049 9.87624C185.306 9.15267 185.213 8.87258 184.933 8.87258C184.722 8.87258 184.419 9.01262 183.695 9.01262C182.832 9.01262 182.155 8.47582 182.155 6.60841C182.155 5.09118 182.855 4.01758 184.349 4.01758C185.563 4.01758 187.08 4.25093 188.364 4.25093C189.928 4.25093 191.048 4.01758 192.589 4.01758C194.339 4.01758 195.086 4.57774 195.833 6.42164L199.124 14.6613C199.545 15.735 200.595 15.8517 200.595 17.8592C200.595 19.213 200.058 20.1699 198.751 20.1699C197.654 20.1699 196.93 20.0067 196.066 20.0067C195.086 20.0067 194.363 20.1699 193.569 20.1699C191.935 20.1699 191.071 19.5164 191.071 17.8825C191.071 16.622 191.678 15.7584 192.705 15.7584H193.032C193.219 15.7584 193.266 15.6417 193.266 15.2216C193.266 15.1281 193.266 14.9647 193.196 14.7781C193.125 14.568 193.032 14.4747 192.869 14.4747C192.519 14.4747 191.515 14.6613 190.535 14.6613C189.648 14.6613 188.434 14.4279 188.2 14.4279C188.06 14.4279 187.99 14.4747 187.85 14.7314C187.757 14.9182 187.71 15.1048 187.71 15.1749C187.71 15.5017 187.804 15.7117 188.177 15.7117H188.434C189.368 15.7117 190.091 16.5986 190.091 17.8825C190.091 19.5164 189.507 20.1699 188.13 20.1699C187.313 20.1699 186.333 20.0067 185.54 20.0067C184.559 20.0067 183.766 20.1699 183.042 20.1699C181.898 20.1699 180.848 19.5164 180.848 17.8825ZM188.971 11.5802C189.111 11.5802 189.811 11.4869 190.231 11.4869C190.815 11.4869 191.562 11.5802 191.958 11.5802C192.122 11.5802 192.192 11.5101 192.122 11.3701L191.351 9.66624C191.095 9.10594 190.955 9.01262 190.488 9.01262H190.301C189.834 9.01262 189.648 9.08272 189.438 9.64288L188.807 11.3002C188.737 11.4869 188.807 11.5802 188.971 11.5802Z" fill="#FF9F1C"/>
<path d="M200.969 17.602C200.969 15.9681 201.599 15.1744 202.719 15.1744C203.046 15.1744 203.256 15.2211 203.583 15.2211C204.073 15.2211 204.307 15.0577 204.377 14.5909C204.4 14.3108 204.47 13.5639 204.47 12.3267C204.47 11.0896 204.4 10.366 204.353 9.89913C204.307 9.5491 204.213 9.26888 203.676 9.26888C203.396 9.26888 203.093 9.33897 202.813 9.33897C201.902 9.33897 201.039 8.45199 201.039 6.72463C201.039 5.18417 201.669 4.13379 203.28 4.13379C203.793 4.13379 204.54 4.25047 205.194 4.25047C206.127 4.25047 206.711 4.13379 207.784 4.13379C208.695 4.13379 209.162 4.48382 209.652 5.25412L214.484 12.6769V9.82918C214.484 9.1522 214.227 9.01216 213.69 8.89548C212.85 8.73207 212.289 8.0085 212.289 6.67804C212.289 4.92731 213.107 4.13379 214.437 4.13379C214.857 4.13379 215.651 4.25047 216.631 4.25047C217.541 4.25047 218.545 4.13379 218.965 4.13379C220.389 4.13379 221.253 4.76405 221.253 7.02807C221.253 8.40526 220.646 9.33897 219.876 9.33897C219.642 9.33897 219.432 9.26888 219.199 9.26888C218.872 9.26888 218.848 9.40892 218.848 10.0859V15.7112C218.848 16.4348 218.989 17.1351 218.989 18.0921C218.989 19.4459 218.078 20.1695 216.561 20.1695C214.974 20.1695 214.344 19.8194 213.293 18.2321L208.835 11.533V14.3574C208.835 14.8943 209.022 15.0809 209.652 15.1277C210.959 15.2211 211.449 16.1313 211.449 17.5319C211.449 19.2825 210.702 20.1695 209.209 20.1695C208.532 20.1695 207.388 19.9361 206.337 19.9361C204.984 19.9361 204.167 20.1695 203.233 20.1695C201.692 20.1695 200.969 19.3292 200.969 17.602Z" fill="#FF9F1C"/>
<path d="M221.484 12.1635C221.484 7.42515 224.962 4.04051 229.467 4.04051C230.751 4.04051 231.638 4.20391 232.408 4.57745C233.179 4.95085 233.295 5.16098 233.552 5.16098C233.669 5.16098 233.762 5.11425 233.809 4.92748C233.949 4.274 234.416 3.92383 235.513 3.92383C236.96 3.92383 237.427 4.57745 237.427 5.4177C237.427 6.07132 237.357 6.67821 237.357 7.30847C237.357 7.75196 237.45 8.19545 237.45 8.82556C237.45 9.87594 236.4 10.5995 234.929 10.5995C233.435 10.5995 232.782 10.2495 232.689 9.12901C232.665 8.75561 232.502 8.52211 232.128 8.40544C231.825 8.31212 231.218 8.24203 230.844 8.24203C228.23 8.24203 227.18 10.0861 227.18 12.1401C227.18 14.2175 228.44 15.8514 230.961 15.8514C232.268 15.8514 232.899 15.4079 232.899 15.0811C232.899 14.8945 232.828 14.7778 232.595 14.7778C232.455 14.7778 232.385 14.801 232.175 14.801C231.521 14.801 231.008 14.1709 231.008 13.0738C231.008 11.8367 231.638 11.1832 232.852 11.1832C233.599 11.1832 234.392 11.2765 235.209 11.2765C236.26 11.2765 236.797 11.1832 237.497 11.1832C238.361 11.1832 239.084 11.7434 239.084 13.0037C239.084 14.0541 238.757 14.661 237.707 14.801C237.45 14.8244 237.357 14.9411 237.357 15.1979C237.357 15.8981 237.497 17.1353 237.497 17.9522C237.497 19.6328 236.703 20.1696 235.279 20.1696C234.136 20.1696 233.645 19.8662 233.342 19.0727C233.295 18.9326 233.202 18.8625 233.085 18.8625C232.969 18.8625 232.922 18.9093 232.735 19.0727C232.128 19.6095 231.311 20.1696 229.117 20.1696C224.589 20.1696 221.484 16.9953 221.484 12.1635Z" fill="#FF9F1C"/>
</g>
<defs>
<clipPath id="clip0_2115_21">
<rect width="242" height="23.0148" fill="white" transform="translate(0 0.492188)"/>
</clipPath>
</defs>
</svg>
