<svg width="2010" height="198" viewBox="0 0 2010 198" fill="none" xmlns="http://www.w3.org/2000/svg">
<path d="M1719.45 73.9847H1734.31V125.983H1719.45V73.9847ZM1769.51 73.9847H1784.36V125.983H1772.48L1756.14 102.213V125.983H1741.28V73.9847H1753.16L1769.51 97.7555V73.9847ZM1809.32 127.172C1803.67 127.172 1798.97 126.008 1795.2 123.681C1791.44 121.304 1788.91 118.109 1787.63 114.098L1800.33 106.744C1802.06 111.151 1805.18 113.355 1809.69 113.355C1813.06 113.355 1814.74 112.464 1814.74 110.681C1814.74 110.186 1814.62 109.74 1814.37 109.344C1814.12 108.948 1813.65 108.601 1812.96 108.304C1812.26 108.007 1811.65 107.784 1811.1 107.635C1810.61 107.437 1809.71 107.165 1808.43 106.818C1807.14 106.471 1806.17 106.199 1805.53 106.001C1795.18 102.881 1790 97.3098 1790 89.2871C1790 84.533 1791.71 80.5959 1795.13 77.476C1798.6 74.3561 1803.13 72.7961 1808.72 72.7961C1813.13 72.7961 1817.07 73.8361 1820.53 75.916C1824.05 77.996 1826.63 80.9921 1828.26 84.9044L1815.93 92.1099C1814.49 88.4453 1812.12 86.6129 1808.8 86.6129C1807.51 86.6129 1806.52 86.8853 1805.83 87.43C1805.18 87.9253 1804.86 88.5691 1804.86 89.3614C1804.86 90.4509 1805.43 91.2928 1806.57 91.8871C1807.76 92.4814 1810.01 93.249 1813.33 94.1899C1815.81 94.9327 1817.84 95.6508 1819.42 96.3441C1821 96.9879 1822.66 97.9288 1824.4 99.1669C1826.13 100.355 1827.42 101.915 1828.26 103.847C1829.15 105.729 1829.6 107.957 1829.6 110.532C1829.6 115.831 1827.76 119.942 1824.1 122.863C1820.48 125.736 1815.56 127.172 1809.32 127.172ZM1868.92 73.9847V88.3957H1856.66V125.983H1841.8V88.3957H1829.55V73.9847H1868.92ZM1899.3 125.983L1897.52 119.298H1882.51L1880.73 125.983H1864.76L1881.32 73.9847H1898.7L1915.27 125.983H1899.3ZM1885.7 107.412H1894.32L1890.01 91.4414L1885.7 107.412ZM1946.03 73.9847H1960.89V125.983H1949.01L1932.66 102.213V125.983H1917.81V73.9847H1929.69L1946.03 97.7555V73.9847ZM2004.25 73.9847V88.3957H1991.99V125.983H1977.14V88.3957H1964.88V73.9847H2004.25Z" fill="#38A2DA"/>
<path d="M1692.23 137.2V189.199H1677.38V163.868L1665.79 183.331H1664.45L1652.86 163.868V189.199H1638V137.2H1652.86L1665.12 158.371L1677.38 137.2H1692.23ZM1714.08 175.531H1733.39V189.199H1699.22V137.2H1733.02V150.72H1714.08V156.366H1731.16V169.737H1714.08V175.531ZM1793.12 137.2V189.199H1778.26V163.868L1766.67 183.331H1765.34L1753.75 163.868V189.199H1738.89V137.2H1753.75L1766 158.371L1778.26 137.2H1793.12ZM1845.35 182.588C1840.05 187.788 1833.53 190.388 1825.81 190.388C1818.08 190.388 1811.55 187.788 1806.2 182.588C1800.9 177.339 1798.25 170.876 1798.25 163.2C1798.25 155.524 1800.9 149.086 1806.2 143.886C1811.55 138.637 1818.08 136.012 1825.81 136.012C1833.53 136.012 1840.05 138.637 1845.35 143.886C1850.69 149.086 1853.37 155.524 1853.37 163.2C1853.37 170.876 1850.69 177.339 1845.35 182.588ZM1816.67 172.262C1819.1 174.64 1822.14 175.828 1825.81 175.828C1829.47 175.828 1832.49 174.64 1834.87 172.262C1837.3 169.836 1838.51 166.815 1838.51 163.2C1838.51 159.585 1837.3 156.589 1834.87 154.211C1832.49 151.785 1829.47 150.572 1825.81 150.572C1822.14 150.572 1819.1 151.785 1816.67 154.211C1814.29 156.589 1813.11 159.585 1813.11 163.2C1813.11 166.815 1814.29 169.836 1816.67 172.262ZM1885.31 189.125L1877.06 172.782H1873.35V189.125H1858.49V137.126H1879.29C1884.99 137.126 1889.69 138.81 1893.41 142.178C1897.12 145.496 1898.98 149.903 1898.98 155.4C1898.98 158.47 1898.26 161.244 1896.82 163.72C1895.44 166.196 1893.48 168.202 1890.96 169.737L1901.21 189.125H1885.31ZM1873.35 150.794V160.451H1879C1880.58 160.501 1881.82 160.105 1882.71 159.263C1883.65 158.421 1884.12 157.232 1884.12 155.697C1884.12 154.162 1883.65 152.973 1882.71 152.132C1881.82 151.24 1880.58 150.794 1879 150.794H1873.35ZM1904.47 137.2H1919.33V189.199H1904.47V137.2ZM1941.16 175.531H1960.47V189.199H1926.3V137.2H1960.1V150.72H1941.16V156.366H1958.24V169.737H1941.16V175.531ZM1984.69 190.388C1979.04 190.388 1974.34 189.224 1970.58 186.896C1966.81 184.519 1964.29 181.325 1963 177.314L1975.7 169.96C1977.43 174.367 1980.55 176.571 1985.06 176.571C1988.43 176.571 1990.11 175.68 1990.11 173.897C1990.11 173.402 1989.99 172.956 1989.74 172.56C1989.49 172.163 1989.02 171.817 1988.33 171.52C1987.64 171.223 1987.02 171 1986.47 170.851C1985.98 170.653 1985.09 170.381 1983.8 170.034C1982.51 169.687 1981.55 169.415 1980.9 169.217C1970.55 166.097 1965.38 160.526 1965.38 152.503C1965.38 147.749 1967.08 143.812 1970.5 140.692C1973.97 137.572 1978.5 136.012 1984.1 136.012C1988.5 136.012 1992.44 137.052 1995.91 139.132C1999.42 141.212 2002 144.208 2003.63 148.12L1991.3 155.326C1989.87 151.661 1987.49 149.829 1984.17 149.829C1982.88 149.829 1981.89 150.101 1981.2 150.646C1980.55 151.141 1980.23 151.785 1980.23 152.577C1980.23 153.667 1980.8 154.509 1981.94 155.103C1983.13 155.697 1985.38 156.465 1988.7 157.406C1991.18 158.149 1993.21 158.867 1994.79 159.56C1996.38 160.204 1998.04 161.145 1999.77 162.383C2001.5 163.571 2002.79 165.131 2003.63 167.063C2004.52 168.944 2004.97 171.173 2004.97 173.748C2004.97 179.047 2003.14 183.157 1999.47 186.079C1995.86 188.952 1990.93 190.388 1984.69 190.388Z" fill="#FF9F1C"/>
<rect y="138" width="1632" height="52" fill="#FF9F1C"/>
<rect y="75" width="1714" height="52" fill="#38A2DA"/>
<path d="M0 11.4073L1679.35 11L1651.5 37L1681 64.9999L0 65L0 11.4073Z" fill="#F14E38"/>
<mask id="path-6-outside-1_2127_15" maskUnits="userSpaceOnUse" x="1643.75" y="0.587891" width="366" height="72" fill="black">
<rect fill="white" x="1643.75" y="0.587891" width="366" height="72"/>
<path d="M1698.87 56.9766C1693.57 62.1765 1687.06 64.7764 1679.33 64.7764C1671.61 64.7764 1665.07 62.1765 1659.72 56.9766C1654.42 51.7272 1651.77 45.2645 1651.77 37.5885C1651.77 29.9125 1654.42 23.4746 1659.72 18.2747C1665.07 13.0253 1671.61 10.4006 1679.33 10.4006C1687.06 10.4006 1693.57 13.0253 1698.87 18.2747C1704.22 23.4746 1706.89 29.9125 1706.89 37.5885C1706.89 45.2645 1704.22 51.7272 1698.87 56.9766ZM1670.19 46.6512C1672.62 49.0282 1675.67 50.2168 1679.33 50.2168C1683 50.2168 1686.02 49.0282 1688.39 46.6512C1690.82 44.2245 1692.03 41.2037 1692.03 37.5885C1692.03 33.9734 1690.82 30.9773 1688.39 28.6002C1686.02 26.1736 1683 24.9603 1679.33 24.9603C1675.67 24.9603 1672.62 26.1736 1670.19 28.6002C1667.82 30.9773 1666.63 33.9734 1666.63 37.5885C1666.63 41.2037 1667.82 44.2245 1670.19 46.6512ZM1740.24 11.5891H1755.1V63.5879H1743.22L1726.87 39.817V63.5879H1712.02V11.5891H1723.9L1740.24 35.36V11.5891ZM1776.92 49.9196H1796.23V63.5879H1762.06V11.5891H1795.86V25.1088H1776.92V30.7544H1794V44.1255H1776.92V49.9196ZM1834.88 64.7764C1829.23 64.7764 1824.53 63.6127 1820.76 61.2851C1817 58.908 1814.47 55.7138 1813.18 51.7025L1825.89 44.3484C1827.62 48.7559 1830.74 50.9596 1835.25 50.9596C1838.61 50.9596 1840.3 50.0682 1840.3 48.2854C1840.3 47.7902 1840.17 47.3445 1839.93 46.9483C1839.68 46.5521 1839.21 46.2055 1838.52 45.9083C1837.82 45.6112 1837.2 45.3883 1836.66 45.2398C1836.16 45.0417 1835.27 44.7693 1833.98 44.4226C1832.7 44.076 1831.73 43.8036 1831.09 43.6055C1820.74 40.4856 1815.56 34.9143 1815.56 26.8916C1815.56 22.1375 1817.27 18.2004 1820.69 15.0805C1824.15 11.9606 1828.69 10.4006 1834.28 10.4006C1838.69 10.4006 1842.63 11.4406 1846.09 13.5205C1849.61 15.6005 1852.18 18.5966 1853.82 22.5089L1841.49 29.7144C1840.05 26.0498 1837.67 24.2174 1834.36 24.2174C1833.07 24.2174 1832.08 24.4898 1831.38 25.0345C1830.74 25.5298 1830.42 26.1736 1830.42 26.9659C1830.42 28.0554 1830.99 28.8973 1832.13 29.4916C1833.32 30.0858 1835.57 30.8534 1838.89 31.7944C1841.36 32.5372 1843.39 33.2553 1844.98 33.9486C1846.56 34.5924 1848.22 35.5333 1849.96 36.7714C1851.69 37.9599 1852.98 39.5199 1853.82 41.4513C1854.71 43.3331 1855.16 45.5617 1855.16 48.1368C1855.16 53.4358 1853.32 57.5461 1849.66 60.468C1846.04 63.3403 1841.12 64.7764 1834.88 64.7764ZM1884.13 64.7764C1876.31 64.7764 1869.82 62.1765 1864.67 56.9766C1859.52 51.7767 1856.94 45.314 1856.94 37.5885C1856.94 29.863 1859.52 23.4003 1864.67 18.2004C1869.82 13.0005 1876.31 10.4006 1884.13 10.4006C1888.94 10.4006 1893.37 11.5396 1897.43 13.8177C1901.49 16.0957 1904.66 19.1661 1906.94 23.0289L1894.01 30.4573C1893.17 28.7735 1891.86 27.4364 1890.07 26.4459C1888.29 25.4555 1886.31 24.9603 1884.13 24.9603C1880.47 24.9603 1877.5 26.1488 1875.22 28.5259C1872.94 30.903 1871.8 33.9238 1871.8 37.5885C1871.8 41.2532 1872.94 44.2741 1875.22 46.6512C1877.5 49.0282 1880.47 50.2168 1884.13 50.2168C1886.36 50.2168 1888.34 49.7216 1890.07 48.7311C1891.86 47.7407 1893.17 46.3788 1894.01 44.6455L1906.94 52.0739C1904.66 55.9862 1901.49 59.0813 1897.43 61.3594C1893.37 63.6374 1888.94 64.7764 1884.13 64.7764ZM1940.31 63.5879L1938.53 56.9023H1923.52L1921.74 63.5879H1905.77L1922.33 11.5891H1939.71L1956.28 63.5879H1940.31ZM1926.71 45.0169H1935.33L1931.02 29.0459L1926.71 45.0169ZM1987.04 11.5891H2001.9V63.5879H1990.02L1973.67 39.817V63.5879H1958.82V11.5891H1970.7L1987.04 35.36V11.5891Z"/>
</mask>
<path d="M1698.87 56.9766C1693.57 62.1765 1687.06 64.7764 1679.33 64.7764C1671.61 64.7764 1665.07 62.1765 1659.72 56.9766C1654.42 51.7272 1651.77 45.2645 1651.77 37.5885C1651.77 29.9125 1654.42 23.4746 1659.72 18.2747C1665.07 13.0253 1671.61 10.4006 1679.33 10.4006C1687.06 10.4006 1693.57 13.0253 1698.87 18.2747C1704.22 23.4746 1706.89 29.9125 1706.89 37.5885C1706.89 45.2645 1704.22 51.7272 1698.87 56.9766ZM1670.19 46.6512C1672.62 49.0282 1675.67 50.2168 1679.33 50.2168C1683 50.2168 1686.02 49.0282 1688.39 46.6512C1690.82 44.2245 1692.03 41.2037 1692.03 37.5885C1692.03 33.9734 1690.82 30.9773 1688.39 28.6002C1686.02 26.1736 1683 24.9603 1679.33 24.9603C1675.67 24.9603 1672.62 26.1736 1670.19 28.6002C1667.82 30.9773 1666.63 33.9734 1666.63 37.5885C1666.63 41.2037 1667.82 44.2245 1670.19 46.6512ZM1740.24 11.5891H1755.1V63.5879H1743.22L1726.87 39.817V63.5879H1712.02V11.5891H1723.9L1740.24 35.36V11.5891ZM1776.92 49.9196H1796.23V63.5879H1762.06V11.5891H1795.86V25.1088H1776.92V30.7544H1794V44.1255H1776.92V49.9196ZM1834.88 64.7764C1829.23 64.7764 1824.53 63.6127 1820.76 61.2851C1817 58.908 1814.47 55.7138 1813.18 51.7025L1825.89 44.3484C1827.62 48.7559 1830.74 50.9596 1835.25 50.9596C1838.61 50.9596 1840.3 50.0682 1840.3 48.2854C1840.3 47.7902 1840.17 47.3445 1839.93 46.9483C1839.68 46.5521 1839.21 46.2055 1838.52 45.9083C1837.82 45.6112 1837.2 45.3883 1836.66 45.2398C1836.16 45.0417 1835.27 44.7693 1833.98 44.4226C1832.7 44.076 1831.73 43.8036 1831.09 43.6055C1820.74 40.4856 1815.56 34.9143 1815.56 26.8916C1815.56 22.1375 1817.27 18.2004 1820.69 15.0805C1824.15 11.9606 1828.69 10.4006 1834.28 10.4006C1838.69 10.4006 1842.63 11.4406 1846.09 13.5205C1849.61 15.6005 1852.18 18.5966 1853.82 22.5089L1841.49 29.7144C1840.05 26.0498 1837.67 24.2174 1834.36 24.2174C1833.07 24.2174 1832.08 24.4898 1831.38 25.0345C1830.74 25.5298 1830.42 26.1736 1830.42 26.9659C1830.42 28.0554 1830.99 28.8973 1832.13 29.4916C1833.32 30.0858 1835.57 30.8534 1838.89 31.7944C1841.36 32.5372 1843.39 33.2553 1844.98 33.9486C1846.56 34.5924 1848.22 35.5333 1849.96 36.7714C1851.69 37.9599 1852.98 39.5199 1853.82 41.4513C1854.71 43.3331 1855.16 45.5617 1855.16 48.1368C1855.16 53.4358 1853.32 57.5461 1849.66 60.468C1846.04 63.3403 1841.12 64.7764 1834.88 64.7764ZM1884.13 64.7764C1876.31 64.7764 1869.82 62.1765 1864.67 56.9766C1859.52 51.7767 1856.94 45.314 1856.94 37.5885C1856.94 29.863 1859.52 23.4003 1864.67 18.2004C1869.82 13.0005 1876.31 10.4006 1884.13 10.4006C1888.94 10.4006 1893.37 11.5396 1897.43 13.8177C1901.49 16.0957 1904.66 19.1661 1906.94 23.0289L1894.01 30.4573C1893.17 28.7735 1891.86 27.4364 1890.07 26.4459C1888.29 25.4555 1886.31 24.9603 1884.13 24.9603C1880.47 24.9603 1877.5 26.1488 1875.22 28.5259C1872.94 30.903 1871.8 33.9238 1871.8 37.5885C1871.8 41.2532 1872.94 44.2741 1875.22 46.6512C1877.5 49.0282 1880.47 50.2168 1884.13 50.2168C1886.36 50.2168 1888.34 49.7216 1890.07 48.7311C1891.86 47.7407 1893.17 46.3788 1894.01 44.6455L1906.94 52.0739C1904.66 55.9862 1901.49 59.0813 1897.43 61.3594C1893.37 63.6374 1888.94 64.7764 1884.13 64.7764ZM1940.31 63.5879L1938.53 56.9023H1923.52L1921.74 63.5879H1905.77L1922.33 11.5891H1939.71L1956.28 63.5879H1940.31ZM1926.71 45.0169H1935.33L1931.02 29.0459L1926.71 45.0169ZM1987.04 11.5891H2001.9V63.5879H1990.02L1973.67 39.817V63.5879H1958.82V11.5891H1970.7L1987.04 35.36V11.5891Z" fill="#F14E38"/>
<path d="M1698.87 56.9766L1704.04 62.2504L1704.04 62.2499L1698.87 56.9766ZM1659.72 56.9766L1654.52 62.2258L1654.55 62.2502L1654.57 62.2744L1659.72 56.9766ZM1659.72 18.2747L1664.9 23.5485L1664.9 23.548L1659.72 18.2747ZM1698.87 18.2747L1693.67 23.5239L1693.69 23.5483L1693.72 23.5725L1698.87 18.2747ZM1670.19 46.6512L1664.92 51.8217L1664.97 51.8762L1665.02 51.9295L1670.19 46.6512ZM1688.39 46.6512L1683.17 41.4264L1683.17 41.4264L1688.39 46.6512ZM1688.39 28.6002L1683.12 33.7708L1683.17 33.8252L1683.22 33.8785L1688.39 28.6002ZM1670.19 28.6002L1664.97 23.3754L1664.97 23.3754L1670.19 28.6002ZM1698.87 56.9766L1693.69 51.7028C1689.84 55.4871 1685.21 57.3876 1679.33 57.3876V64.7764V72.1653C1688.91 72.1653 1697.3 68.8659 1704.04 62.2504L1698.87 56.9766ZM1679.33 64.7764V57.3876C1673.45 57.3876 1668.79 55.4855 1664.87 51.6788L1659.72 56.9766L1654.57 62.2744C1661.35 68.8674 1669.76 72.1653 1679.33 72.1653V64.7764ZM1659.72 56.9766L1664.92 51.7274C1661.07 47.9103 1659.16 43.3572 1659.16 37.5885H1651.77H1644.38C1644.38 47.1719 1647.78 55.5442 1654.52 62.2258L1659.72 56.9766ZM1651.77 37.5885H1659.16C1659.16 31.8209 1661.07 27.3069 1664.9 23.5485L1659.72 18.2747L1654.55 13.0009C1647.78 19.6422 1644.38 28.0041 1644.38 37.5885H1651.77ZM1659.72 18.2747L1664.9 23.548C1668.82 19.7005 1673.48 17.7895 1679.33 17.7895V10.4006V3.01173C1669.74 3.01173 1661.32 6.35009 1654.55 13.0014L1659.72 18.2747ZM1679.33 10.4006V17.7895C1685.19 17.7895 1689.81 19.6989 1693.67 23.5239L1698.87 18.2747L1704.07 13.0255C1697.33 6.35171 1688.93 3.01173 1679.33 3.01173V10.4006ZM1698.87 18.2747L1693.72 23.5725C1697.59 27.3365 1699.5 31.8432 1699.5 37.5885H1706.89H1714.28C1714.28 27.9819 1710.84 19.6127 1704.02 12.9769L1698.87 18.2747ZM1706.89 37.5885H1699.5C1699.5 43.335 1697.59 47.8808 1693.69 51.7033L1698.87 56.9766L1704.04 62.2499C1710.85 55.5737 1714.28 47.194 1714.28 37.5885H1706.89ZM1670.19 46.6512L1665.02 51.9295C1668.95 55.7725 1673.9 57.6057 1679.33 57.6057V50.2168V42.8279C1677.43 42.8279 1676.3 42.284 1675.37 41.3728L1670.19 46.6512ZM1679.33 50.2168V57.6057C1684.76 57.6057 1689.72 55.7704 1693.62 51.8759L1688.39 46.6512L1683.17 41.4264C1682.31 42.2861 1681.23 42.8279 1679.33 42.8279V50.2168ZM1688.39 46.6512L1693.62 51.8759C1697.51 47.9834 1699.42 43.0469 1699.42 37.5885H1692.03H1684.65C1684.65 39.3605 1684.13 40.4657 1683.17 41.4264L1688.39 46.6512ZM1692.03 37.5885H1699.42C1699.42 32.1293 1697.51 27.185 1693.56 23.3219L1688.39 28.6002L1683.22 33.8785C1684.13 34.7695 1684.65 35.8175 1684.65 37.5885H1692.03ZM1688.39 28.6002L1693.67 23.4296C1689.79 19.4649 1684.81 17.5714 1679.33 17.5714V24.9603V32.3491C1681.18 32.3491 1682.25 32.8822 1683.12 33.7708L1688.39 28.6002ZM1679.33 24.9603V17.5714C1673.85 17.5714 1668.88 19.4623 1664.97 23.3754L1670.19 28.6002L1675.42 33.8249C1676.36 32.8848 1677.48 32.3491 1679.33 32.3491V24.9603ZM1670.19 28.6002L1664.97 23.3754C1661.1 27.2496 1659.24 32.1771 1659.24 37.5885H1666.63H1674.02C1674.02 35.7697 1674.54 34.7049 1675.42 33.8249L1670.19 28.6002ZM1666.63 37.5885H1659.24C1659.24 42.9997 1661.09 47.919 1664.92 51.8217L1670.19 46.6512L1675.47 41.4806C1674.54 40.5301 1674.02 39.4077 1674.02 37.5885H1666.63ZM1740.24 11.5891V4.20027H1732.86V11.5891H1740.24ZM1755.1 11.5891H1762.49V4.20027H1755.1V11.5891ZM1755.1 63.5879V70.9768H1762.49V63.5879H1755.1ZM1743.22 63.5879L1737.13 67.7739L1739.33 70.9768H1743.22V63.5879ZM1726.87 39.817L1732.96 35.631L1719.48 16.0272V39.817H1726.87ZM1726.87 63.5879V70.9768H1734.26V63.5879H1726.87ZM1712.02 63.5879H1704.63V70.9768H1712.02V63.5879ZM1712.02 11.5891V4.20027H1704.63V11.5891H1712.02ZM1723.9 11.5891L1729.99 7.40314L1727.79 4.20027H1723.9V11.5891ZM1740.24 35.36L1734.16 39.546L1747.63 59.1498V35.36H1740.24ZM1740.24 11.5891V18.978H1755.1V11.5891V4.20027H1740.24V11.5891ZM1755.1 11.5891H1747.71V63.5879H1755.1H1762.49V11.5891H1755.1ZM1755.1 63.5879V56.199H1743.22V63.5879V70.9768H1755.1V63.5879ZM1743.22 63.5879L1749.3 59.4019L1732.96 35.631L1726.87 39.817L1720.78 44.003L1737.13 67.7739L1743.22 63.5879ZM1726.87 39.817H1719.48V63.5879H1726.87H1734.26V39.817H1726.87ZM1726.87 63.5879V56.199H1712.02V63.5879V70.9768H1726.87V63.5879ZM1712.02 63.5879H1719.4V11.5891H1712.02H1704.63V63.5879H1712.02ZM1712.02 11.5891V18.978H1723.9V11.5891V4.20027H1712.02V11.5891ZM1723.9 11.5891L1717.81 15.7752L1734.16 39.546L1740.24 35.36L1746.33 31.174L1729.99 7.40314L1723.9 11.5891ZM1740.24 35.36H1747.63V11.5891H1740.24H1732.86V35.36H1740.24ZM1776.92 49.9196H1769.53V57.3085H1776.92V49.9196ZM1796.23 49.9196H1803.62V42.5308H1796.23V49.9196ZM1796.23 63.5879V70.9768H1803.62V63.5879H1796.23ZM1762.06 63.5879H1754.67V70.9768H1762.06V63.5879ZM1762.06 11.5891V4.20027H1754.67V11.5891H1762.06ZM1795.86 11.5891H1803.25V4.20027H1795.86V11.5891ZM1795.86 25.1088V32.4977H1803.25V25.1088H1795.86ZM1776.92 25.1088V17.7199H1769.53V25.1088H1776.92ZM1776.92 30.7544H1769.53V38.1433H1776.92V30.7544ZM1794 30.7544H1801.39V23.3655H1794V30.7544ZM1794 44.1255V51.5144H1801.39V44.1255H1794ZM1776.92 44.1255V36.7366H1769.53V44.1255H1776.92ZM1776.92 49.9196V57.3085H1796.23V49.9196V42.5308H1776.92V49.9196ZM1796.23 49.9196H1788.84V63.5879H1796.23H1803.62V49.9196H1796.23ZM1796.23 63.5879V56.199H1762.06V63.5879V70.9768H1796.23V63.5879ZM1762.06 63.5879H1769.45V11.5891H1762.06H1754.67V63.5879H1762.06ZM1762.06 11.5891V18.978H1795.86V11.5891V4.20027H1762.06V11.5891ZM1795.86 11.5891H1788.47V25.1088H1795.86H1803.25V11.5891H1795.86ZM1795.86 25.1088V17.7199H1776.92V25.1088V32.4977H1795.86V25.1088ZM1776.92 25.1088H1769.53V30.7544H1776.92H1784.31V25.1088H1776.92ZM1776.92 30.7544V38.1433H1794V30.7544V23.3655H1776.92V30.7544ZM1794 30.7544H1786.61V44.1255H1794H1801.39V30.7544H1794ZM1794 44.1255V36.7366H1776.92V44.1255V51.5144H1794V44.1255ZM1776.92 44.1255H1769.53V49.9196H1776.92H1784.31V44.1255H1776.92ZM1820.76 61.2851L1816.82 67.5323L1816.85 67.551L1816.88 67.5694L1820.76 61.2851ZM1813.18 51.7025L1809.48 45.3079L1804.33 48.2913L1806.15 53.9607L1813.18 51.7025ZM1825.89 44.3484L1832.76 41.6442L1829.62 33.6497L1822.19 37.9538L1825.89 44.3484ZM1839.93 46.9483L1833.66 50.8644L1833.66 50.8644L1839.93 46.9483ZM1838.52 45.9083L1835.61 52.6998L1835.61 52.6998L1838.52 45.9083ZM1836.66 45.2398L1833.91 52.1002L1834.31 52.2571L1834.71 52.3683L1836.66 45.2398ZM1833.98 44.4226L1835.91 37.2878L1835.91 37.2878L1833.98 44.4226ZM1831.09 43.6055L1833.26 36.5434L1833.24 36.5372L1833.22 36.5311L1831.09 43.6055ZM1820.69 15.0805L1815.74 9.58838L1815.73 9.60608L1815.71 9.62391L1820.69 15.0805ZM1846.09 13.5205L1842.29 19.8564L1842.31 19.8683L1842.33 19.88L1846.09 13.5205ZM1853.82 22.5089L1857.55 28.8885L1863.13 25.6266L1860.64 19.6609L1853.82 22.5089ZM1841.49 29.7144L1834.61 32.4104L1837.76 40.451L1845.21 36.094L1841.49 29.7144ZM1831.38 25.0345L1835.89 30.8911L1835.92 30.868L1835.95 30.8445L1831.38 25.0345ZM1832.13 29.4916L1828.71 36.0424L1828.77 36.0719L1828.82 36.1004L1832.13 29.4916ZM1838.89 31.7944L1841.01 24.7171L1840.96 24.7011L1840.9 24.6858L1838.89 31.7944ZM1844.98 33.9486L1842.02 40.718L1842.11 40.7573L1842.2 40.7942L1844.98 33.9486ZM1849.96 36.7714L1845.66 42.784L1845.72 42.8252L1845.78 42.8652L1849.96 36.7714ZM1853.82 41.4513L1847.04 44.4038L1847.09 44.5098L1847.14 44.6144L1853.82 41.4513ZM1849.66 60.468L1854.25 66.2531L1854.26 66.2453L1849.66 60.468ZM1834.88 64.7764V57.3876C1830.23 57.3876 1826.96 56.4321 1824.65 55.0008L1820.76 61.2851L1816.88 67.5694C1822.09 70.7932 1828.23 72.1653 1834.88 72.1653V64.7764ZM1820.76 61.2851L1824.71 55.0379C1822.32 53.53 1820.95 51.7061 1820.22 49.4442L1813.18 51.7025L1806.15 53.9607C1808 59.7215 1811.68 64.2861 1816.82 67.5323L1820.76 61.2851ZM1813.18 51.7025L1816.89 58.097L1829.59 50.7429L1825.89 44.3484L1822.19 37.9538L1809.48 45.3079L1813.18 51.7025ZM1825.89 44.3484L1819.01 47.0525C1820.28 50.275 1822.27 53.2287 1825.26 55.342C1828.28 57.4744 1831.75 58.3485 1835.25 58.3485V50.9596V43.5707C1834.24 43.5707 1833.89 43.343 1833.79 43.2717C1833.66 43.1812 1833.23 42.8292 1832.76 41.6442L1825.89 44.3484ZM1835.25 50.9596V58.3485C1837.34 58.3485 1840.05 58.1121 1842.49 56.8213C1843.82 56.1178 1845.21 55.0256 1846.24 53.3923C1847.28 51.7326 1847.69 49.9405 1847.69 48.2854H1840.3H1832.91C1832.91 47.5217 1833.11 46.5095 1833.73 45.5185C1834.34 44.5537 1835.09 44.0186 1835.58 43.7609C1836.03 43.5228 1836.29 43.4953 1836.17 43.516C1836.07 43.5337 1835.78 43.5707 1835.25 43.5707V50.9596ZM1840.3 48.2854H1847.69C1847.69 46.4922 1847.22 44.6742 1846.19 43.0322L1839.93 46.9483L1833.66 50.8644C1833.13 50.0147 1832.91 49.0882 1832.91 48.2854H1840.3ZM1839.93 46.9483L1846.19 43.0322C1844.79 40.7902 1842.73 39.674 1841.43 39.1169L1838.52 45.9083L1835.61 52.6998C1835.57 52.6858 1835.34 52.5837 1835.01 52.3396C1834.67 52.0938 1834.14 51.6272 1833.66 50.8644L1839.93 46.9483ZM1838.52 45.9083L1841.43 39.1169C1840.52 38.7268 1839.57 38.3738 1838.6 38.1112L1836.66 45.2398L1834.71 52.3683C1834.84 52.4029 1835.13 52.4956 1835.61 52.6998L1838.52 45.9083ZM1836.66 45.2398L1839.4 38.3794C1838.46 38.0012 1837.18 37.6312 1835.91 37.2878L1833.98 44.4226L1832.06 51.5575C1832.66 51.7176 1833.12 51.849 1833.46 51.9533C1833.83 52.0664 1833.95 52.1141 1833.91 52.1002L1836.66 45.2398ZM1833.98 44.4226L1835.91 37.2878C1834.64 36.9465 1833.77 36.7016 1833.26 36.5434L1831.09 43.6055L1828.91 50.6676C1829.69 50.9056 1830.76 51.2055 1832.06 51.5575L1833.98 44.4226ZM1831.09 43.6055L1833.22 36.5311C1828.8 35.1987 1826.25 33.561 1824.86 32.0584C1823.61 30.7201 1822.95 29.1504 1822.95 26.8916H1815.56H1808.17C1808.17 32.6556 1810.1 37.8829 1814.03 42.1158C1817.81 46.1845 1823.02 48.8924 1828.95 50.68L1831.09 43.6055ZM1815.56 26.8916H1822.95C1822.95 24.1489 1823.83 22.214 1825.67 20.5371L1820.69 15.0805L1815.71 9.62391C1810.71 14.1868 1808.17 20.126 1808.17 26.8916H1815.56ZM1820.69 15.0805L1825.63 20.5726C1827.48 18.9086 1830.13 17.7895 1834.28 17.7895V10.4006V3.01173C1827.24 3.01173 1820.83 5.01254 1815.74 9.58838L1820.69 15.0805ZM1834.28 10.4006V17.7895C1837.47 17.7895 1840.08 18.527 1842.29 19.8564L1846.09 13.5205L1849.89 7.18462C1845.18 4.35413 1839.9 3.01173 1834.28 3.01173V10.4006ZM1846.09 13.5205L1842.33 19.88C1844.42 21.117 1845.95 22.8542 1847 25.3569L1853.82 22.5089L1860.64 19.6609C1858.41 14.339 1854.8 10.0839 1849.85 7.16103L1846.09 13.5205ZM1853.82 22.5089L1850.09 16.1293L1837.76 23.3349L1841.49 29.7144L1845.21 36.094L1857.55 28.8885L1853.82 22.5089ZM1841.49 29.7144L1848.37 27.0184C1847.31 24.3178 1845.67 21.6908 1843.14 19.7396C1840.52 17.7213 1837.46 16.8285 1834.36 16.8285V24.2174V31.6063C1834.5 31.6063 1834.5 31.6252 1834.4 31.5948C1834.3 31.5617 1834.2 31.5046 1834.12 31.4437C1833.96 31.3249 1834.23 31.4464 1834.61 32.4104L1841.49 29.7144ZM1834.36 24.2174V16.8285C1832.15 16.8285 1829.29 17.2799 1826.82 19.2245L1831.38 25.0345L1835.95 30.8445C1834.86 31.6997 1833.99 31.6063 1834.36 31.6063V24.2174ZM1831.38 25.0345L1826.88 19.1779C1824.47 21.0308 1823.03 23.813 1823.03 26.9659H1830.42H1837.81C1837.81 27.5994 1837.67 28.389 1837.27 29.1932C1836.87 29.9916 1836.34 30.5459 1835.89 30.8911L1831.38 25.0345ZM1830.42 26.9659H1823.03C1823.03 31.3583 1825.66 34.451 1828.71 36.0424L1832.13 29.4916L1835.55 22.9407C1835.78 23.064 1836.41 23.4465 1836.97 24.2744C1837.57 25.165 1837.81 26.1464 1837.81 26.9659H1830.42ZM1832.13 29.4916L1828.82 36.1004C1830.71 37.0446 1833.59 37.9734 1836.87 38.9029L1838.89 31.7944L1840.9 24.6858C1837.54 23.7335 1835.92 23.1271 1835.43 22.8828L1832.13 29.4916ZM1838.89 31.7944L1836.76 38.8716C1839.08 39.5663 1840.8 40.1869 1842.02 40.718L1844.98 33.9486L1847.94 27.1792C1845.98 26.3237 1843.65 25.5082 1841.01 24.7171L1838.89 31.7944ZM1844.98 33.9486L1842.2 40.7942C1843.14 41.1751 1844.29 41.8036 1845.66 42.784L1849.96 36.7714L1854.25 30.7588C1852.16 29.2631 1849.99 28.0098 1847.76 27.1031L1844.98 33.9486ZM1849.96 36.7714L1845.78 42.8652C1846.36 43.2685 1846.75 43.7386 1847.04 44.4038L1853.82 41.4513L1860.59 38.4988C1859.2 35.3012 1857.01 32.6514 1854.13 30.6776L1849.96 36.7714ZM1853.82 41.4513L1847.14 44.6144C1847.47 45.3019 1847.77 46.4027 1847.77 48.1368H1855.16H1862.54C1862.54 44.7206 1861.95 41.3644 1860.5 38.2882L1853.82 41.4513ZM1855.16 48.1368H1847.77C1847.77 51.5194 1846.71 53.3657 1845.05 54.6906L1849.66 60.468L1854.26 66.2453C1859.93 61.7265 1862.54 55.3521 1862.54 48.1368H1855.16ZM1849.66 60.468L1845.06 54.6828C1843.15 56.2039 1840.03 57.3876 1834.88 57.3876V64.7764V72.1653C1842.2 72.1653 1848.94 70.4766 1854.25 66.2531L1849.66 60.468ZM1864.67 56.9766L1869.92 51.777L1864.67 56.9766ZM1864.67 18.2004L1869.92 23.4001L1869.92 23.4001L1864.67 18.2004ZM1897.43 13.8177L1901.04 7.37351L1901.04 7.37351L1897.43 13.8177ZM1906.94 23.0289L1910.62 29.4351L1917.1 25.7118L1913.3 19.2754L1906.94 23.0289ZM1894.01 30.4573L1887.4 33.7617L1890.9 40.7652L1897.69 36.8635L1894.01 30.4573ZM1890.07 26.4459L1886.49 32.905L1886.49 32.905L1890.07 26.4459ZM1875.22 28.5259L1880.55 33.6383L1880.55 33.6383L1875.22 28.5259ZM1875.22 46.6512L1880.55 41.5388L1880.55 41.5388L1875.22 46.6512ZM1890.07 48.7311L1886.49 42.2721L1886.45 42.2937L1886.41 42.3158L1890.07 48.7311ZM1894.01 44.6455L1897.69 38.2392L1890.83 34.2924L1887.37 41.4173L1894.01 44.6455ZM1906.94 52.0739L1913.32 55.7919L1917.06 49.3703L1910.62 45.6676L1906.94 52.0739ZM1897.43 61.3594L1901.04 67.8035L1901.04 67.8035L1897.43 61.3594ZM1884.13 64.7764V57.3876C1878.13 57.3876 1873.58 55.472 1869.92 51.777L1864.67 56.9766L1859.42 62.1763C1866.06 68.881 1874.49 72.1653 1884.13 72.1653V64.7764ZM1864.67 56.9766L1869.92 51.777C1866.22 48.0437 1864.33 43.4867 1864.33 37.5885H1856.94H1849.56C1849.56 47.1414 1852.82 55.5098 1859.42 62.1763L1864.67 56.9766ZM1856.94 37.5885H1864.33C1864.33 31.6903 1866.22 27.1333 1869.92 23.4001L1864.67 18.2004L1859.42 13.0008C1852.82 19.6673 1849.56 28.0357 1849.56 37.5885H1856.94ZM1864.67 18.2004L1869.92 23.4001C1873.58 19.7051 1878.13 17.7895 1884.13 17.7895V10.4006V3.01173C1874.49 3.01173 1866.06 6.29602 1859.42 13.0008L1864.67 18.2004ZM1884.13 10.4006V17.7895C1887.71 17.7895 1890.89 18.6233 1893.81 20.2618L1897.43 13.8177L1901.04 7.37351C1895.84 4.45591 1890.16 3.01173 1884.13 3.01173V10.4006ZM1897.43 13.8177L1893.81 20.2618C1896.78 21.927 1898.98 24.0876 1900.57 26.7823L1906.94 23.0289L1913.3 19.2754C1910.33 14.2446 1906.2 10.2644 1901.04 7.37351L1897.43 13.8177ZM1906.94 23.0289L1903.26 16.6226L1890.33 24.051L1894.01 30.4573L1897.69 36.8635L1910.62 29.4351L1906.94 23.0289ZM1894.01 30.4573L1900.62 27.1529C1899.06 24.0253 1896.63 21.6373 1893.66 19.9869L1890.07 26.4459L1886.49 32.905C1887.08 33.2355 1887.28 33.5217 1887.4 33.7617L1894.01 30.4573ZM1890.07 26.4459L1893.66 19.9869C1890.71 18.345 1887.48 17.5714 1884.13 17.5714V24.9603V32.3491C1885.14 32.3491 1885.88 32.566 1886.49 32.905L1890.07 26.4459ZM1884.13 24.9603V17.5714C1878.7 17.5714 1873.72 19.4104 1869.88 23.4135L1875.22 28.5259L1880.55 33.6383C1881.27 32.8872 1882.23 32.3491 1884.13 32.3491V24.9603ZM1875.22 28.5259L1869.88 23.4135C1866.13 27.3265 1864.41 32.2529 1864.41 37.5885H1871.8H1879.19C1879.19 35.5948 1879.75 34.4794 1880.55 33.6383L1875.22 28.5259ZM1871.8 37.5885H1864.41C1864.41 42.9241 1866.13 47.8506 1869.88 51.7636L1875.22 46.6512L1880.55 41.5388C1879.75 40.6976 1879.19 39.5823 1879.19 37.5885H1871.8ZM1875.22 46.6512L1869.88 51.7636C1873.72 55.7667 1878.7 57.6057 1884.13 57.6057V50.2168V42.8279C1882.23 42.8279 1881.27 42.2898 1880.55 41.5388L1875.22 46.6512ZM1884.13 50.2168V57.6057C1887.49 57.6057 1890.77 56.8466 1893.74 55.1464L1890.07 48.7311L1886.41 42.3158C1885.92 42.5965 1885.23 42.8279 1884.13 42.8279V50.2168ZM1890.07 48.7311L1893.66 55.1901C1896.69 53.508 1899.11 51.0546 1900.66 47.8737L1894.01 44.6455L1887.37 41.4173C1887.23 41.703 1887.02 41.9733 1886.49 42.2721L1890.07 48.7311ZM1894.01 44.6455L1890.33 51.0517L1903.26 58.4801L1906.94 52.0739L1910.62 45.6676L1897.69 38.2392L1894.01 44.6455ZM1906.94 52.0739L1900.55 48.3559C1898.96 51.095 1896.76 53.2631 1893.81 54.9152L1897.43 61.3594L1901.04 67.8035C1906.22 64.8995 1910.36 60.8774 1913.32 55.7919L1906.94 52.0739ZM1897.43 61.3594L1893.81 54.9152C1890.89 56.5537 1887.71 57.3876 1884.13 57.3876V64.7764V72.1653C1890.16 72.1653 1895.84 70.7211 1901.04 67.8035L1897.43 61.3594ZM1940.31 63.5879L1933.17 65.4917L1934.63 70.9768H1940.31V63.5879ZM1938.53 56.9023L1945.67 54.9985L1944.2 49.5135H1938.53V56.9023ZM1923.52 56.9023V49.5135H1917.84L1916.38 54.9985L1923.52 56.9023ZM1921.74 63.5879V70.9768H1927.41L1928.88 65.4917L1921.74 63.5879ZM1905.77 63.5879L1898.73 61.3451L1895.66 70.9768H1905.77V63.5879ZM1922.33 11.5891V4.20027H1916.93L1915.29 9.34632L1922.33 11.5891ZM1939.71 11.5891L1946.75 9.34632L1945.12 4.20027H1939.71V11.5891ZM1956.28 63.5879V70.9768H1966.39L1963.32 61.3451L1956.28 63.5879ZM1926.71 45.0169L1919.58 43.0924L1917.07 52.4058H1926.71V45.0169ZM1935.33 45.0169V52.4058H1944.98L1942.47 43.0924L1935.33 45.0169ZM1931.02 29.0459L1938.16 27.1214L1931.02 0.676924L1923.89 27.1214L1931.02 29.0459ZM1940.31 63.5879L1947.45 61.6841L1945.67 54.9985L1938.53 56.9023L1931.39 58.8062L1933.17 65.4917L1940.31 63.5879ZM1938.53 56.9023V49.5135H1923.52V56.9023V64.2912H1938.53V56.9023ZM1923.52 56.9023L1916.38 54.9985L1914.6 61.6841L1921.74 63.5879L1928.88 65.4917L1930.66 58.8062L1923.52 56.9023ZM1921.74 63.5879V56.199H1905.77V63.5879V70.9768H1921.74V63.5879ZM1905.77 63.5879L1912.81 65.8307L1929.37 13.832L1922.33 11.5891L1915.29 9.34632L1898.73 61.3451L1905.77 63.5879ZM1922.33 11.5891V18.978H1939.71V11.5891V4.20027H1922.33V11.5891ZM1939.71 11.5891L1932.67 13.832L1949.24 65.8307L1956.28 63.5879L1963.32 61.3451L1946.75 9.34632L1939.71 11.5891ZM1956.28 63.5879V56.199H1940.31V63.5879V70.9768H1956.28V63.5879ZM1926.71 45.0169V52.4058H1935.33V45.0169V37.628H1926.71V45.0169ZM1935.33 45.0169L1942.47 43.0924L1938.16 27.1214L1931.02 29.0459L1923.89 30.9703L1928.2 46.9414L1935.33 45.0169ZM1931.02 29.0459L1923.89 27.1214L1919.58 43.0924L1926.71 45.0169L1933.85 46.9414L1938.16 30.9703L1931.02 29.0459ZM1987.04 11.5891V4.20027H1979.66V11.5891H1987.04ZM2001.9 11.5891H2009.29V4.20027H2001.9V11.5891ZM2001.9 63.5879V70.9768H2009.29V63.5879H2001.9ZM1990.02 63.5879L1983.93 67.7739L1986.13 70.9768H1990.02V63.5879ZM1973.67 39.817L1979.76 35.631L1966.28 16.0272V39.817H1973.67ZM1973.67 63.5879V70.9768H1981.06V63.5879H1973.67ZM1958.82 63.5879H1951.43V70.9768H1958.82V63.5879ZM1958.82 11.5891V4.20027H1951.43V11.5891H1958.82ZM1970.7 11.5891L1976.79 7.40314L1974.59 4.20027H1970.7V11.5891ZM1987.04 35.36L1980.96 39.546L1994.43 59.1498V35.36H1987.04ZM1987.04 11.5891V18.978H2001.9V11.5891V4.20027H1987.04V11.5891ZM2001.9 11.5891H1994.51V63.5879H2001.9H2009.29V11.5891H2001.9ZM2001.9 63.5879V56.199H1990.02V63.5879V70.9768H2001.9V63.5879ZM1990.02 63.5879L1996.1 59.4019L1979.76 35.631L1973.67 39.817L1967.58 44.003L1983.93 67.7739L1990.02 63.5879ZM1973.67 39.817H1966.28V63.5879H1973.67H1981.06V39.817H1973.67ZM1973.67 63.5879V56.199H1958.82V63.5879V70.9768H1973.67V63.5879ZM1958.82 63.5879H1966.21V11.5891H1958.82H1951.43V63.5879H1958.82ZM1958.82 11.5891V18.978H1970.7V11.5891V4.20027H1958.82V11.5891ZM1970.7 11.5891L1964.61 15.7752L1980.96 39.546L1987.04 35.36L1993.13 31.174L1976.79 7.40314L1970.7 11.5891ZM1987.04 35.36H1994.43V11.5891H1987.04H1979.66V35.36H1987.04Z" fill="white" mask="url(#path-6-outside-1_2127_15)"/>
</svg>
