<svg width="70" height="34" viewBox="0 0 70 34" fill="none" xmlns="http://www.w3.org/2000/svg">
<path fill-rule="evenodd" clip-rule="evenodd" d="M61.6181 17.3222C61.6181 13.4772 59.7809 10.4434 56.2693 10.4434C52.743 10.4434 50.6094 13.4772 50.6094 17.2921C50.6094 21.8129 53.1282 24.0958 56.7435 24.0958C58.5066 24.0958 59.8401 23.6903 60.8477 23.1196V20.1157C59.8401 20.6264 58.6844 20.9418 57.2176 20.9418C55.7804 20.9418 54.5061 20.4311 54.3432 18.6589H61.5885C61.5885 18.4636 61.6181 17.6826 61.6181 17.3222ZM54.2987 15.8953C54.2987 14.1982 55.3211 13.4923 56.2545 13.4923C57.1583 13.4923 58.1214 14.1982 58.1214 15.8953H54.2987Z" fill="#635BFF"/>
<path fill-rule="evenodd" clip-rule="evenodd" d="M44.8876 10.4434C43.4355 10.4434 42.5021 11.1342 41.9835 11.6149L41.7909 10.6837H38.5312V28.1961L42.2354 27.4L42.2502 23.1496C42.7836 23.5401 43.5689 24.0958 44.8728 24.0958C47.5249 24.0958 49.94 21.933 49.94 17.172C49.9252 12.8164 47.4805 10.4434 44.8876 10.4434ZM43.9986 20.7916C43.1244 20.7916 42.6058 20.4762 42.2502 20.0857L42.2354 14.5136C42.6206 14.078 43.154 13.7776 43.9986 13.7776C45.3469 13.7776 46.2803 15.3096 46.2803 17.2771C46.2803 19.2897 45.3617 20.7916 43.9986 20.7916Z" fill="#635BFF"/>
<path fill-rule="evenodd" clip-rule="evenodd" d="M33.4336 9.5572L37.1526 8.74616V5.69727L33.4336 6.49328V9.5572Z" fill="#635BFF"/>
<path d="M37.1526 10.6982H33.4336V23.84H37.1526V10.6982Z" fill="#635BFF"/>
<path fill-rule="evenodd" clip-rule="evenodd" d="M29.4492 11.8096L29.2121 10.6982H26.0117V23.84H29.7159V14.9336C30.5901 13.7772 32.0717 13.9874 32.531 14.1526V10.6982C32.0569 10.518 30.3234 10.1876 29.4492 11.8096Z" fill="#635BFF"/>
<path fill-rule="evenodd" clip-rule="evenodd" d="M22.0402 7.43945L18.425 8.22045L18.4102 20.2508C18.4102 22.4737 20.0548 24.1108 22.2477 24.1108C23.4626 24.1108 24.3516 23.8855 24.8406 23.6151V20.5662C24.3664 20.7615 22.0254 21.4524 22.0254 19.2295V13.8977H24.8406V10.6986H22.0254L22.0402 7.43945Z" fill="#635BFF"/>
<path fill-rule="evenodd" clip-rule="evenodd" d="M12.0259 14.5136C12.0259 13.9278 12.5001 13.7025 13.2854 13.7025C14.4114 13.7025 15.8338 14.048 16.9599 14.6638V11.1342C15.7301 10.6386 14.5151 10.4434 13.2854 10.4434C10.2776 10.4434 8.27734 12.0354 8.27734 14.6938C8.27734 18.8391 13.9077 18.1782 13.9077 19.9655C13.9077 20.6564 13.315 20.8817 12.4853 20.8817C11.2555 20.8817 9.68492 20.3711 8.44033 19.6802V23.2547C9.81827 23.8555 11.211 24.1108 12.4853 24.1108C15.5671 24.1108 17.6859 22.5639 17.6859 19.8754C17.6711 15.3997 12.0259 16.1957 12.0259 14.5136Z" fill="#635BFF"/>
</svg>
